<svg id="credissimoLogo" xmlns="http://www.w3.org/2000/svg" width="144" height="35.513" viewBox="0 0 144 35.513">
    <defs>
        <style>
            .cls-1{fill:#005ac8}.cls-2{fill:#fa6428}
        </style>
    </defs>
    <g id="Group" transform="translate(42.109 7.16)">
        <path id="Shape" class="cls-1" d="M0 5.332A5.167 5.167 0 0 1 5.5 0c2.214 0 3.427.989 3.427 2.348a2.789 2.789 0 0 1-.207 1.174l-1.8.165v-.311c0-1.214-.458-1.624-1.609-1.624-1.611 0-2.887 1.148-2.887 3.417 0 2.47 1.234 3.6 3.1 3.6a5.9 5.9 0 0 0 2.885-.8h.169l-.256 1.77a6.079 6.079 0 0 1-3.138.884C2.089 10.623 0 8.894 0 5.332" transform="translate(0 4.981)"/>
        <path id="Shape-2" data-name="Shape" class="cls-1" d="M1.755 1.979 0 2.225.334.269 2.8 0h1.318l-.145 1.5h.145A3.1 3.1 0 0 1 6.691 0a2.4 2.4 0 0 1 1.087.207L7.3 2.555a1.613 1.613 0 0 0-1.09-.372 2.318 2.318 0 0 0-2.091.948v7.329H1.756V1.979z" transform="translate(9.599 4.981)"/>
        <path id="Shape-3" data-name="Shape" class="cls-1" d="M5.08 10.624C1.9 10.623 0 8.645 0 5.334a5.217 5.217 0 0 1 1.622-3.965A5.353 5.353 0 0 1 5.269 0c2.412 0 3.91 1.168 3.91 3.048a2.58 2.58 0 0 1-.862 2.17 3.573 3.573 0 0 1-2.273.61H2.362a2.8 2.8 0 0 0 3.094 2.943 6.377 6.377 0 0 0 2.865-.68h.169l-.169 1.854a7.6 7.6 0 0 1-3.241.679zm.189-8.872A2.809 2.809 0 0 0 2.424 4.3h3.492c.779 0 1.15-.166 1.15-1.112 0-.653-.312-1.437-1.797-1.437z" transform="translate(17.756 4.981)"/>
        <path id="Shape-4" data-name="Shape" class="cls-1" d="M9.366 15.6a1.766 1.766 0 0 1-1.8-1.069H7.4A4.252 4.252 0 0 1 4.39 15.6a4.129 4.129 0 0 1-3.12-1.27A5.517 5.517 0 0 1 0 10.5a5.383 5.383 0 0 1 1.688-4.119 5.6 5.6 0 0 1 3.789-1.4 4.519 4.519 0 0 1 1.756.351v-3.4l-1.987.33.275-1.931L8.656 0h1.108a15.361 15.361 0 0 0-.188 2.327v10.745c0 .63.179.8.835.8h.816l-.4 1.524a5.229 5.229 0 0 1-1.461.204zM5.624 6.752c-2.02 0-3.178 1.343-3.178 3.684 0 2.137.9 3.315 2.53 3.315a3.378 3.378 0 0 0 2.258-.822v-5.7a2.576 2.576 0 0 0-1.61-.477z" transform="translate(28.317)"/>
        <path id="Shape-5" data-name="Shape" class="cls-1" d="M3.807 15.6c-1.38 0-2.05-.781-2.05-2.387V6.96L0 7.206.334 5.25l2.616-.269h1.4a18.628 18.628 0 0 0-.231 2.594v5.5c0 .631.094.8.754.8h.961L5.478 15.4a6.876 6.876 0 0 1-1.671.2zM3.219 2.594A1.245 1.245 0 0 1 1.86 1.3 1.246 1.246 0 0 1 3.219 0 1.245 1.245 0 0 1 4.6 1.3a1.244 1.244 0 0 1-1.381 1.294z" transform="translate(40.028)"/>
        <path id="Shape-6" data-name="Shape" class="cls-1" d="m0 9.986.315-2.079h.166a5.676 5.676 0 0 0 2.971.905c1.317 0 2.3-.349 2.3-1.3 0-.884-.774-1.091-1.633-1.277L2.95 5.991C1.235 5.621.15 4.819.15 3.048.148 1.112 1.884 0 4.246 0a9.04 9.04 0 0 1 3.493.619l-.481 1.894h-.167a5.173 5.173 0 0 0-2.677-.7c-1.045 0-1.9.205-1.9 1.068 0 .928.481 1.05 1.442 1.3l1.423.309c1.568.349 2.718 1.049 2.718 2.882 0 2.182-1.989 3.251-4.642 3.251A9.245 9.245 0 0 1 0 9.986" transform="translate(46.991 4.98)"/>
        <path id="Shape-7" data-name="Shape" class="cls-1" d="m0 9.986.313-2.079h.168a5.671 5.671 0 0 0 2.967.905c1.319 0 2.3-.349 2.3-1.3 0-.884-.773-1.091-1.63-1.277l-1.169-.244c-1.713-.37-2.8-1.172-2.8-2.943C.146 1.112 1.883 0 4.245 0a9.052 9.052 0 0 1 3.492.619l-.48 1.894h-.17a5.163 5.163 0 0 0-2.675-.7c-1.046 0-1.9.205-1.9 1.068 0 .928.481 1.05 1.443 1.3l1.423.309c1.567.349 2.718 1.049 2.718 2.882 0 2.182-1.988 3.251-4.645 3.251A9.227 9.227 0 0 1 0 9.986" transform="translate(56.738 4.98)"/>
        <path id="Shape-8" data-name="Shape" class="cls-1" d="M3.807 15.6c-1.379 0-2.049-.781-2.049-2.387V6.96L0 7.206.337 5.25l2.613-.269h1.4a18.529 18.529 0 0 0-.23 2.594v5.5c0 .631.094.8.754.8h.962L5.479 15.4a6.9 6.9 0 0 1-1.672.2zM3.22 2.594A1.245 1.245 0 0 1 1.861 1.3 1.245 1.245 0 0 1 3.22 0 1.244 1.244 0 0 1 4.6 1.3a1.244 1.244 0 0 1-1.38 1.294z" transform="translate(65.835)"/>
        <path id="Shape-9" data-name="Shape" class="cls-1" d="M14.575 8.236V4.55c0-1.749-.418-2.614-2.007-2.614a3.041 3.041 0 0 0-2.133.947 11.592 11.592 0 0 1 .042 1.236v6.341H8.2V4.469c0-1.75-.273-2.569-1.928-2.569a3.033 3.033 0 0 0-2.155 1.07v7.494H1.755V1.978L0 2.226.334.269 2.8 0h1.318l-.145 1.38h.145A4.052 4.052 0 0 1 7.069 0a2.907 2.907 0 0 1 2.948 1.545A4.265 4.265 0 0 1 13.134.063c2.34 0 3.782 1.029 3.782 4.139v3.89c0 .639.105.8.755.8h.815l-.313 1.523a5.8 5.8 0 0 1-1.57.205c-1.359 0-2.028-.821-2.028-2.388" transform="translate(72.153 4.981)"/>
        <path id="Shape-10" data-name="Shape" class="cls-1" d="M5.166 10.623a5.149 5.149 0 0 1-3.759-1.389A5.414 5.414 0 0 1 0 5.313 5.38 5.38 0 0 1 1.438 1.4 5.13 5.13 0 0 1 5.166 0a5.168 5.168 0 0 1 3.751 1.362 5.453 5.453 0 0 1 1.413 3.97 5.306 5.306 0 0 1-1.468 3.889 5.123 5.123 0 0 1-3.696 1.402zm0-8.79c-1.753 0-2.718 1.236-2.718 3.48s.965 3.478 2.718 3.478 2.718-1.235 2.718-3.478a4.15 4.15 0 0 0-.692-2.566 2.413 2.413 0 0 0-2.026-.914z" transform="translate(91.561 4.981)"/>
    </g>
    <g id="Group-2" data-name="Group">
        <path id="Shape-11" data-name="Shape" class="cls-2" d="M25.01 35.327a9.809 9.809 0 0 1-5.337-1.527l1.527-3.637a7.8 7.8 0 0 0 3.56.847c3.389 0 5.255-1.775 5.255-5 0-3.324-1.759-5.081-5.088-5.081a9.294 9.294 0 0 0-3.813.845l-1.526-3.641a13.943 13.943 0 0 1 6.019-1.439c6.374 0 9.744 3.222 9.745 9.316a8.751 8.751 0 0 1-2.976 6.945 11.223 11.223 0 0 1-7.366 2.372zm-15.514 0A10.218 10.218 0 0 1 2.682 33.1 8.178 8.178 0 0 1 0 26.69a16.469 16.469 0 0 1 1.953-7.285L6.02 21.1a12.018 12.018 0 0 0-1.1 4.744c0 3.337 1.669 5.251 4.579 5.251s4.58-1.914 4.58-5.251a12.178 12.178 0 0 0-1.1-4.744l4.064-1.7a16.506 16.506 0 0 1 1.948 7.285A8.179 8.179 0 0 1 16.31 33.1a10.216 10.216 0 0 1-6.81 2.226zm.255-16.693C3.372 18.633 0 15.412 0 9.319a8.755 8.755 0 0 1 2.978-6.947A11.223 11.223 0 0 1 10.344 0a11.556 11.556 0 0 1 5.341 1.271l-1.528 3.9a7.816 7.816 0 0 0-3.557-.853c-3.388 0-5.254 1.776-5.254 5 0 3.323 1.759 5.079 5.087 5.079a9.3 9.3 0 0 0 3.814-.846l1.527 3.641a14.34 14.34 0 0 1-6.023 1.441zm8.56-2.707a16.539 16.539 0 0 1-1.946-7.287 8.185 8.185 0 0 1 2.681-6.417A10.21 10.21 0 0 1 25.858 0a10.208 10.208 0 0 1 6.812 2.224 8.185 8.185 0 0 1 2.681 6.416 16.534 16.534 0 0 1-1.951 7.285l-4.07-1.7a11.988 11.988 0 0 0 1.1-4.742c0-3.338-1.669-5.252-4.58-5.252s-4.576 1.914-4.576 5.252a12.023 12.023 0 0 0 1.1 4.742l-4.071 1.7z"/>
        <g id="Group-3" data-name="Group" transform="translate(77.838 26.278)">
            <path id="Shape-12" data-name="Shape" class="cls-2" d="M0 .136h.89l.043.811A1.938 1.938 0 0 1 2.663 0a1.946 1.946 0 0 1 1.024.237 1.472 1.472 0 0 1 .582.641 2.7 2.7 0 0 1 .247.878 9.316 9.316 0 0 1 .056 1.094V5.2h-.939V2.924c0-.43-.006-.71-.012-.843a1.779 1.779 0 0 0-.073-.4 1.029 1.029 0 0 0-1.08-.829 1.35 1.35 0 0 0-1.048.479 1.472 1.472 0 0 0-.291.553 2.416 2.416 0 0 0-.1.518q-.02.273-.02.943V5.2H.064V2.708Q.064 1.417 0 .136" transform="translate(0 1.923)"/>
            <path id="Shape-13" data-name="Shape" class="cls-2" d="M1.74 5.331a2 2 0 0 1-.917-.2 1.43 1.43 0 0 1-.608-.562A1.553 1.553 0 0 1 0 3.755a1.46 1.46 0 0 1 .171-.71 1.45 1.45 0 0 1 .52-.527 2.627 2.627 0 0 1 .833-.318 5.373 5.373 0 0 1 1.122-.1c.242 0 .458.007.66.02C3.3 1.241 2.871.8 2.04.8a2.274 2.274 0 0 0-.758.121 2.94 2.94 0 0 0-.745.42L.5.52A3.138 3.138 0 0 1 2.193 0a1.768 1.768 0 0 1 1.868 1.09 4.537 4.537 0 0 1 .152 1.4v.992c0 .773.017 1.334.053 1.716H3.4a5.913 5.913 0 0 1-.011-.393c0-.171 0-.336.011-.489a1.951 1.951 0 0 1-.68.76 1.808 1.808 0 0 1-.98.255zm1.123-2.56c-1.241 0-1.87.327-1.87.972a.746.746 0 0 0 .121.425.828.828 0 0 0 .343.3 1.117 1.117 0 0 0 .51.11 1.144 1.144 0 0 0 1.026-.493A2.3 2.3 0 0 0 3.317 2.8a3.426 3.426 0 0 0-.454-.029z" transform="translate(5.448 1.924)"/>
            <path id="Shape-14" data-name="Shape" class="cls-2" d="M1 7.26H.066V2.3C.066 1.649.044.925 0 .084h.9l.049.884A2 2 0 0 1 2.709 0a2.121 2.121 0 0 1 1.152.316 2.083 2.083 0 0 1 .763.9 3.127 3.127 0 0 1 .267 1.333 3.394 3.394 0 0 1-.274 1.406 2.166 2.166 0 0 1-.771.938 2.056 2.056 0 0 1-1.159.333 2.393 2.393 0 0 1-.733-.109 1.582 1.582 0 0 1-.573-.323 2.062 2.062 0 0 1-.433-.565A8.377 8.377 0 0 1 1 5.2v2.059zM2.505.8a1.331 1.331 0 0 0-1.065.522 1.967 1.967 0 0 0-.44 1.3 2.081 2.081 0 0 0 .2.905 1.646 1.646 0 0 0 .537.65 1.308 1.308 0 0 0 .753.233 1.186 1.186 0 0 0 .56-.136 1.368 1.368 0 0 0 .45-.385 1.894 1.894 0 0 0 .295-.564A2.194 2.194 0 0 0 3.9 2.61a2.39 2.39 0 0 0-.175-.944 1.458 1.458 0 0 0-.49-.638A1.221 1.221 0 0 0 2.505.8z" transform="translate(11.14 1.975)"/>
            <path id="Shape-15" data-name="Shape" class="cls-2" d="M3.5 0h.927v3.2q0 .416.024.9c.017.325.031.646.05.962h-.87L3.6 4.269a2.025 2.025 0 0 1-1.721.931 1.775 1.775 0 0 1-1.144-.34 1.744 1.744 0 0 1-.578-.893A4.683 4.683 0 0 1 0 2.688V0h.949v2.353A4.045 4.045 0 0 0 1.1 3.785a1.041 1.041 0 0 0 .96.646 1.252 1.252 0 0 0 1.04-.519 2.13 2.13 0 0 0 .4-1.342V0z" transform="translate(17.093 2.059)"/>
            <path id="Shape-16" data-name="Shape" class="cls-2" d="M4.319 5.063h-.948V2.777H.949v2.286H0V0h.949v2.045h2.422V0h.948z" transform="translate(25.84 2.059)"/>
            <path id="Shape-17" data-name="Shape" class="cls-2" d="M1.739 5.331a1.994 1.994 0 0 1-.917-.2 1.445 1.445 0 0 1-.61-.562A1.526 1.526 0 0 1 0 3.755a1.453 1.453 0 0 1 .17-.71 1.463 1.463 0 0 1 .52-.527 2.628 2.628 0 0 1 .83-.321 5.421 5.421 0 0 1 1.126-.1c.241 0 .457.007.66.02C3.3 1.241 2.87.8 2.041.8a2.275 2.275 0 0 0-.76.121 2.907 2.907 0 0 0-.744.42L.5.52A3.131 3.131 0 0 1 2.192 0 1.768 1.768 0 0 1 4.06 1.09a4.632 4.632 0 0 1 .153 1.4v.992c0 .78.017 1.342.053 1.716H3.4a7.123 7.123 0 0 1-.011-.393c0-.186.005-.352.011-.489a1.954 1.954 0 0 1-.678.76 1.82 1.82 0 0 1-.983.255zm1.123-2.56c-1.243 0-1.873.327-1.873.972a.771.771 0 0 0 .123.425.835.835 0 0 0 .343.3 1.126 1.126 0 0 0 .511.11 1.148 1.148 0 0 0 1.027-.493A2.309 2.309 0 0 0 3.315 2.8a3.439 3.439 0 0 0-.453-.029z" transform="translate(31.196 1.924)"/>
            <path id="Shape-18" data-name="Shape" class="cls-2" d="M2.358 7.254a2.444 2.444 0 0 1-1.7-.593A2.769 2.769 0 0 1 0 4.556v-1.49a6.314 6.314 0 0 1 .144-1.458A2.426 2.426 0 0 1 .57.656a1.6 1.6 0 0 1 .687-.507A2.713 2.713 0 0 1 2.218 0 3.757 3.757 0 0 1 3.3.126a1.348 1.348 0 0 1 .655.425A1.605 1.605 0 0 1 4.322 1.6a1.508 1.508 0 0 1-.3.889 2.5 2.5 0 0 1-.67.645 1.692 1.692 0 0 1 .615.29 1.71 1.71 0 0 1 .507.635 2.279 2.279 0 0 1 .206 1.013 2.308 2.308 0 0 1-.068.534 2.757 2.757 0 0 1-.218.568 2.415 2.415 0 0 1-.373.527 1.713 1.713 0 0 1-.667.419 3.079 3.079 0 0 1-.996.134zM2.084 3.7a6.643 6.643 0 0 0-1.144.1v1.014a2.486 2.486 0 0 0 .029.386 1.86 1.86 0 0 0 .084.345 1.378 1.378 0 0 0 .144.3 2.078 2.078 0 0 0 .2.258 1.275 1.275 0 0 0 .986.4 1.229 1.229 0 0 0 .944-.388 1.389 1.389 0 0 0 .361-.979 1.62 1.62 0 0 0-.168-.766A1.123 1.123 0 0 0 3 3.881a2.05 2.05 0 0 0-.916-.181zM2.217.71a1.366 1.366 0 0 0-.761.19 1 1 0 0 0-.394.548 3.306 3.306 0 0 0-.113.943v.731a6.791 6.791 0 0 1 1.234-.125 4.037 4.037 0 0 1 .453.021 1.937 1.937 0 0 0 .538-.607 1.314 1.314 0 0 0 .2-.635 1.2 1.2 0 0 0-.134-.591.849.849 0 0 0-.397-.359A1.526 1.526 0 0 0 2.217.71z" transform="translate(36.646)"/>
            <path id="Shape-19" data-name="Shape" class="cls-2" d="M1.006 7.26H.068V2.3A39.252 39.252 0 0 0 0 .084h.9l.047.884a2.063 2.063 0 0 1 .746-.717A2.041 2.041 0 0 1 2.71 0a2.1 2.1 0 0 1 1.149.316 2.088 2.088 0 0 1 .765.9 3.154 3.154 0 0 1 .269 1.333 3.393 3.393 0 0 1-.275 1.406 2.177 2.177 0 0 1-.774.938 2.049 2.049 0 0 1-1.155.333 2.38 2.38 0 0 1-.733-.109 1.576 1.576 0 0 1-.577-.323 2.046 2.046 0 0 1-.433-.565 8.082 8.082 0 0 1 .059.972v2.058zM2.5.8a1.341 1.341 0 0 0-1.067.522 1.976 1.976 0 0 0-.43 1.3 2.119 2.119 0 0 0 .2.905 1.646 1.646 0 0 0 .535.65 1.318 1.318 0 0 0 .755.233 1.2 1.2 0 0 0 .56-.136 1.363 1.363 0 0 0 .447-.385 1.844 1.844 0 0 0 .293-.564A2.192 2.192 0 0 0 3.9 2.61a2.413 2.413 0 0 0-.175-.944 1.451 1.451 0 0 0-.491-.638A1.215 1.215 0 0 0 2.5.8z" transform="translate(42.429 1.975)"/>
            <path id="Shape-20" data-name="Shape" class="cls-2" d="M2.587 5.331a2.9 2.9 0 0 1-1.055-.19A2.3 2.3 0 0 1 .176 3.73 3.352 3.352 0 0 1 0 2.607a3.029 3.029 0 0 1 .295-1.369 2.207 2.207 0 0 1 .843-.915A2.381 2.381 0 0 1 2.382 0a1.855 1.855 0 0 1 1.705.822A3.93 3.93 0 0 1 4.6 2.913H.947A1.946 1.946 0 0 0 1.492 4.1a1.576 1.576 0 0 0 1.138.438 2.641 2.641 0 0 0 .8-.124 3.575 3.575 0 0 0 .792-.362v.906a4.453 4.453 0 0 1-.824.286 3.709 3.709 0 0 1-.811.087zM2.35.742a1.272 1.272 0 0 0-.65.175 1.317 1.317 0 0 0-.488.5 2.129 2.129 0 0 0-.248.767h2.683a1.978 1.978 0 0 0-.374-1.037A1.09 1.09 0 0 0 2.35.742z" transform="translate(48.136 1.923)"/>
            <path id="Shape-21" data-name="Shape" class="cls-2" d="M3.4 5.063h-.763L1.681 2.6a30.927 30.927 0 0 0-.417-1.032A5.247 5.247 0 0 0 .9.759C.9.723.9.9.917 1.281s.022.693.022.932v2.85H0V0h1.5l1 2.54c.089.224.26.7.516 1.423.06-.173.122-.349.184-.531s.12-.337.17-.468.105-.273.167-.424l1-2.54h1.5v5.064h-.94V2.213c0-.24.008-.549.022-.932s.022-.558.022-.522a1.24 1.24 0 0 0-.143.284c-.086.19-.18.411-.287.665s-.184.448-.243.587-.1.242-.12.308z" transform="translate(53.793 2.059)"/>
            <path id="Shape-22" data-name="Shape" class="cls-2" d="M2.589 5.331a2.893 2.893 0 0 1-1.055-.19A2.307 2.307 0 0 1 .177 3.73 3.383 3.383 0 0 1 0 2.607a3.028 3.028 0 0 1 .3-1.369 2.189 2.189 0 0 1 .839-.915A2.391 2.391 0 0 1 2.384 0a1.837 1.837 0 0 1 1.707.822A3.928 3.928 0 0 1 4.6 2.913H.95A1.94 1.94 0 0 0 1.494 4.1a1.575 1.575 0 0 0 1.137.438 2.682 2.682 0 0 0 .8-.124 3.631 3.631 0 0 0 .79-.362v.906a4.466 4.466 0 0 1-.825.286 3.69 3.69 0 0 1-.807.087zM2.353.742A1.283 1.283 0 0 0 1.7.917a1.338 1.338 0 0 0-.488.5 2.084 2.084 0 0 0-.251.767h2.69a1.964 1.964 0 0 0-.376-1.037 1.094 1.094 0 0 0-.922-.405z" transform="translate(60.8 1.923)"/>
        </g>
    </g>
</svg>