<svg xmlns="http://www.w3.org/2000/svg" xmlns:xlink="http://www.w3.org/1999/xlink" width="180" height="180" viewBox="0 0 180 180">
  <defs>
    <clipPath id="clip-path">
      <rect id="Rectangle_1920" data-name="Rectangle 1920" width="180" height="180"/>
    </clipPath>
  </defs>
  <g id="favicon" clip-path="url(#clip-path)">
    <g id="favicon_180x180" clip-path="url(#clip-path)">
      <rect id="Rectangle_265" data-name="Rectangle 265" width="180" height="180" rx="10" fill="none"/>
      <path id="Shape" d="M95.651,135.107c-7.433,0-15.445-2.285-20.412-5.821l5.837-13.927A29.816,29.816,0,0,0,94.693,118.6c12.96,0,20.1-6.789,20.1-19.118,0-12.712-6.729-19.432-19.459-19.432a35.547,35.547,0,0,0-14.583,3.23L74.914,69.353a53.324,53.324,0,0,1,23.019-5.5c24.379,0,37.266,12.321,37.269,35.631,0,11.086-3.935,20.27-11.38,26.56C116.8,131.971,107.062,135.107,95.651,135.107Zm-59.332,0c-10.633,0-19.645-2.94-26.063-8.5C3.546,120.784,0,112.3,0,102.075c0-8.608,2.862-19.283,7.47-27.86l15.555,6.476a45.961,45.961,0,0,0-4.218,18.143c0,12.762,6.383,20.081,17.512,20.081S53.833,111.6,53.833,98.834A46.573,46.573,0,0,0,49.61,80.691l15.571-6.479c4.6,8.582,7.451,19.258,7.451,27.863,0,10.23-3.546,18.711-10.253,24.526C55.962,132.164,46.951,135.1,36.319,135.1Zm.975-63.843C12.9,71.261,0,58.944,0,35.641,0,24.555,3.938,15.368,11.388,9.073,18.41,3.137,28.153,0,39.562,0,48.335,0,56.05,2.618,59.99,4.86l-5.846,14.9a29.891,29.891,0,0,0-13.619-3.244c-12.958,0-20.1,6.793-20.1,19.129,0,12.709,6.727,19.426,19.453,19.426a35.56,35.56,0,0,0,14.588-3.235l5.84,13.925A54.844,54.844,0,0,1,37.293,71.261ZM70.032,60.908h0c-4.592-8.591-7.443-19.267-7.443-27.863,0-10.237,3.545-18.723,10.252-24.54C79.252,2.941,88.262,0,98.894,0s19.64,2.941,26.053,8.5c6.707,5.817,10.252,14.3,10.252,24.54,0,8.595-2.853,19.27-7.446,27.86l-15.565-6.487a45.847,45.847,0,0,0,4.224-18.135c0-12.765-6.385-20.087-17.518-20.087s-17.5,7.321-17.5,20.087A45.981,45.981,0,0,0,85.6,54.418l-15.57,6.49Z" transform="translate(22.399 22.447)" fill="#fa6428"/>
    </g>
  </g>
</svg>
