<svg xmlns="http://www.w3.org/2000/svg" xmlns:xlink="http://www.w3.org/1999/xlink" id="Atoms_Illustrations_Home_plus_--desktop" width="473.99" height="456" viewBox="0 0 473.99 456">
    <defs>
        <linearGradient id="linear-gradient" x1="-.175" x2=".746" y1=".98" y2=".325" gradientUnits="objectBoundingBox">
            <stop offset="0" stop-color="#c0d9fc"/>
            <stop offset=".09" stop-color="#c0d9fc" stop-opacity=".961"/>
            <stop offset=".23" stop-color="#c0d9fc" stop-opacity=".871"/>
            <stop offset=".41" stop-color="#c0d9fc" stop-opacity=".702"/>
            <stop offset=".61" stop-color="#c0d9fc" stop-opacity=".478"/>
            <stop offset=".85" stop-color="#c0d9fc" stop-opacity=".2"/>
            <stop offset="1" stop-color="#c0d9fc" stop-opacity="0"/>
        </linearGradient>
        <linearGradient id="linear-gradient-2" x1="1.191" x2=".302" y1="-.334" y2=".788" xlink:href="#linear-gradient"/>
        <linearGradient id="linear-gradient-3" x1=".234" x2=".566" y1="1.178" y2=".294" gradientUnits="objectBoundingBox">
            <stop offset="0" stop-color="#fff"/>
            <stop offset="1" stop-color="#fff" stop-opacity="0"/>
        </linearGradient>
        <linearGradient id="linear-gradient-4" x1=".017" x2="1.017" y1=".5" y2=".5" gradientUnits="objectBoundingBox">
            <stop offset="0" stop-color="#c0d9fc"/>
            <stop offset="1" stop-color="#c0d9fc" stop-opacity="0"/>
        </linearGradient>
        <linearGradient id="linear-gradient-5" x1=".534" x2=".52" y1="1.009" y2=".223" gradientUnits="objectBoundingBox">
            <stop offset="0" stop-color="#c0d9fd"/>
            <stop offset="1" stop-color="#c0d9fd" stop-opacity="0"/>
        </linearGradient>
        <linearGradient id="linear-gradient-6" x1="1.349" x2=".364" y1="2.511" y2=".309" gradientUnits="objectBoundingBox">
            <stop offset="0" stop-color="#fff"/>
            <stop offset=".21" stop-color="#fff" stop-opacity=".741"/>
            <stop offset="1" stop-color="#fff" stop-opacity="0"/>
        </linearGradient>
        <linearGradient id="linear-gradient-7" x1="1.41" x2=".497" y1="1.483" y2=".546" xlink:href="#linear-gradient-6"/>
        <linearGradient id="linear-gradient-8" x1="7.599" x2="-9.428" y1=".402" y2=".402" xlink:href="#linear-gradient-5"/>
        <linearGradient id="linear-gradient-9" x1="8.814" x2="-8.211" y1=".402" y2=".402" xlink:href="#linear-gradient-5"/>
        <linearGradient id="linear-gradient-10" x1="10.029" x2="-6.996" y1=".402" y2=".402" xlink:href="#linear-gradient-5"/>
        <linearGradient id="linear-gradient-11" x1="11.244" x2="-5.78" y1=".402" y2=".402" xlink:href="#linear-gradient-5"/>
        <linearGradient id="linear-gradient-12" x1="7.603" x2="-9.425" y1=".402" y2=".402" xlink:href="#linear-gradient-5"/>
        <linearGradient id="linear-gradient-13" x1="8.817" x2="-8.207" y1=".402" y2=".402" xlink:href="#linear-gradient-5"/>
        <linearGradient id="linear-gradient-14" x1="10.033" x2="-6.992" y1=".402" y2=".402" xlink:href="#linear-gradient-5"/>
        <linearGradient id="linear-gradient-15" x1="11.248" x2="-5.776" y1=".402" y2=".402" xlink:href="#linear-gradient-5"/>
        <linearGradient id="linear-gradient-16" x1="7.595" x2="-9.432" y1=".402" y2=".402" xlink:href="#linear-gradient-5"/>
        <linearGradient id="linear-gradient-17" x1="8.81" x2="-8.215" y1=".402" y2=".402" xlink:href="#linear-gradient-5"/>
        <linearGradient id="linear-gradient-18" x1="10.025" x2="-7" y1=".402" y2=".402" xlink:href="#linear-gradient-5"/>
        <linearGradient id="linear-gradient-19" x1="11.24" x2="-5.784" y1=".402" y2=".402" xlink:href="#linear-gradient-5"/>
        <linearGradient id="linear-gradient-20" x1="-1.213" x2=".708" y1="1.742" y2=".164" xlink:href="#linear-gradient-3"/>
        <linearGradient id="linear-gradient-21" x1="-1.147" x2=".521" y1="1.661" y2=".469" xlink:href="#linear-gradient-3"/>
        <linearGradient id="linear-gradient-22" x1="2.558" x2=".338" y1=".746" y2=".47" gradientUnits="objectBoundingBox">
            <stop offset="0" stop-color="#c54005"/>
            <stop offset="1" stop-color="#c54005" stop-opacity="0"/>
        </linearGradient>
        <linearGradient id="linear-gradient-23" x1="5.549" x2=".732" y1="1.146" y2=".494" xlink:href="#linear-gradient-3"/>
        <linearGradient id="linear-gradient-24" x1="2.586" x2="-1.017" y1="1.004" y2=".171" xlink:href="#linear-gradient-22"/>
        <linearGradient id="linear-gradient-25" x1="7.294" x2="-.208" y1="1.532" y2=".395" xlink:href="#linear-gradient-3"/>
        <linearGradient id="linear-gradient-26" x1="1.743" x2=".053" y1="1.435" y2=".153" xlink:href="#linear-gradient-22"/>
        <linearGradient id="linear-gradient-27" x1=".563" x2=".505" y1="1.083" y2=".449" xlink:href="#linear-gradient-5"/>
        <linearGradient id="linear-gradient-28" x1="1.017" x2=".503" y1=".958" y2=".505" xlink:href="#linear-gradient-5"/>
        <linearGradient id="linear-gradient-29" x1="-.095" x2=".564" y1=".877" y2=".498" xlink:href="#linear-gradient-6"/>
        <linearGradient id="linear-gradient-30" x1="2" x2="2.006" y1=".5" y2=".5" xlink:href="#linear-gradient-5"/>
        <linearGradient id="linear-gradient-31" x1="1.049" x2=".32" y1="1.186" y2=".469" xlink:href="#linear-gradient-6"/>
        <linearGradient id="linear-gradient-32" x1="15.138" x2="13.274" y1="-1.508" y2="-.677" xlink:href="#linear-gradient-3"/>
        <linearGradient id="linear-gradient-33" x1="15.223" x2="13.359" y1="-1.505" y2="-.674" xlink:href="#linear-gradient-3"/>
        <linearGradient id="linear-gradient-34" x1="2.252" x2=".591" y1="-1.106" y2=".432" xlink:href="#linear-gradient-3"/>
        <linearGradient id="linear-gradient-35" x1="1.946" x2=".663" y1="1.521" y2=".609" xlink:href="#linear-gradient-3"/>
        <linearGradient id="linear-gradient-36" x1="1.811" x2=".534" y1="1.622" y2=".463" xlink:href="#linear-gradient-3"/>
        <linearGradient id="linear-gradient-37" x1=".169" x2="1.195" y1=".693" y2=".167" gradientUnits="objectBoundingBox">
            <stop offset="0" stop-color="#c0d9fd"/>
            <stop offset=".38" stop-color="#c0d9fd" stop-opacity=".58"/>
            <stop offset=".88" stop-color="#c0d9fd" stop-opacity="0"/>
        </linearGradient>
        <linearGradient id="linear-gradient-38" x1=".147" x2="1.446" y1=".682" y2=".156" xlink:href="#linear-gradient-4"/>
        <linearGradient id="linear-gradient-39" x1="2.343" x2=".577" y1="1.185" y2=".5" xlink:href="#linear-gradient-3"/>
        <linearGradient id="linear-gradient-40" x1="2.909" x2="-.282" y1="-.176" y2=".872" xlink:href="#linear-gradient-3"/>
        <linearGradient id="linear-gradient-41" x1=".396" x2=".683" y1=".97" y2="-.103" xlink:href="#linear-gradient-4"/>
        <linearGradient id="linear-gradient-42" x1="-.405" x2=".448" y1=".809" y2=".373" xlink:href="#linear-gradient-22"/>
        <linearGradient id="linear-gradient-43" x1="2.791" x2=".371" y1=".538" y2=".503" gradientUnits="objectBoundingBox">
            <stop offset="0" stop-color="#fff"/>
            <stop offset=".2" stop-color="#fff" stop-opacity=".741"/>
            <stop offset=".41" stop-color="#fff" stop-opacity=".478"/>
            <stop offset=".61" stop-color="#fff" stop-opacity=".271"/>
            <stop offset=".78" stop-color="#fff" stop-opacity=".122"/>
            <stop offset=".91" stop-color="#fff" stop-opacity=".031"/>
            <stop offset="1" stop-color="#fff" stop-opacity="0"/>
        </linearGradient>
        <linearGradient id="linear-gradient-44" x1="40.174" x2="37.837" y1="-2.315" y2="-1.653" xlink:href="#linear-gradient-3"/>
        <linearGradient id="linear-gradient-45" x1="-.463" x2=".493" y1="1.087" y2=".534" xlink:href="#linear-gradient-3"/>
        <linearGradient id="linear-gradient-46" x1="-.942" x2=".367" y1=".955" y2=".55" xlink:href="#linear-gradient-22"/>
        <linearGradient id="linear-gradient-47" x1="-6.509" x2="-.214" y1=".741" y2=".525" xlink:href="#linear-gradient-22"/>
        <linearGradient id="linear-gradient-48" x1="2.268" x2=".751" y1=".633" y2=".519" xlink:href="#linear-gradient-3"/>
        <linearGradient id="linear-gradient-49" x1=".507" x2=".497" y1="2.736" y2="-.143" xlink:href="#linear-gradient-22"/>
        <linearGradient id="linear-gradient-50" x1=".552" x2=".508" y1="1.542" y2=".594" xlink:href="#linear-gradient-43"/>
        <linearGradient id="linear-gradient-51" x1="-.404" x2=".527" y1=".964" y2=".486" xlink:href="#linear-gradient-5"/>
        <linearGradient id="linear-gradient-52" x1="0" x2="1" y1=".5" y2=".5" xlink:href="#linear-gradient-6"/>
        <linearGradient id="linear-gradient-53" x1="1.517" x2=".077" y1=".564" y2=".473" xlink:href="#linear-gradient-3"/>
        <linearGradient id="linear-gradient-54" x1="2.449" x2=".511" y1="2.382" y2=".623" xlink:href="#linear-gradient-3"/>
        <linearGradient id="linear-gradient-55" x1="1.478" x2=".536" y1="2.12" y2=".524" xlink:href="#linear-gradient-22"/>
        <linearGradient id="linear-gradient-56" x1="2.15" x2=".551" y1="1.005" y2=".564" xlink:href="#linear-gradient-3"/>
        <linearGradient id="linear-gradient-57" x1="1.914" x2=".487" y1="1.703" y2=".47" xlink:href="#linear-gradient-22"/>
        <linearGradient id="linear-gradient-58" x1="2.725" x2=".344" y1=".721" y2=".498" xlink:href="#linear-gradient-4"/>
        <linearGradient id="linear-gradient-59" x1=".339" x2=".587" y1=".869" y2=".197" gradientUnits="objectBoundingBox">
            <stop offset="0" stop-color="#004fa4"/>
            <stop offset="1" stop-color="#004fa4" stop-opacity="0"/>
        </linearGradient>
        <linearGradient id="linear-gradient-60" x1="2.994" x2=".52" y1="1.005" y2=".544" xlink:href="#linear-gradient-3"/>
        <linearGradient id="linear-gradient-61" x1="-.142" x2=".344" y1="1.052" y2=".637" xlink:href="#linear-gradient-59"/>
        <linearGradient id="linear-gradient-62" x1="2.158" x2=".778" y1=".723" y2=".546" xlink:href="#linear-gradient-3"/>
        <linearGradient id="linear-gradient-63" x1="2.805" x2="-.097" y1="1.141" y2=".303" xlink:href="#linear-gradient-3"/>
        <linearGradient id="linear-gradient-64" x1="1.506" x2=".448" y1="1.375" y2=".446" xlink:href="#linear-gradient-3"/>
        <linearGradient id="linear-gradient-65" x1="1.603" x2=".696" y1=".832" y2=".426" xlink:href="#linear-gradient-5"/>
        <linearGradient id="linear-gradient-66" x1="2.819" x2="-.682" y1=".836" y2=".406" xlink:href="#linear-gradient-4"/>
        <linearGradient id="linear-gradient-67" x1="2.484" x2=".683" y1="1.542" y2=".546" xlink:href="#linear-gradient-3"/>
        <clipPath id="clip-path">
            <path id="Path_9310" d="M272.7 95.782c52.315-37.019 120.163-10.825 172.363 9.409 50.812 19.695 101.756 21.663 153.244 34.415 107.863 26.71 92.622 175.592 15.8 237.2-82.509 66.172-213.9 51.611-303.191 11.656-47.575-21.287-91.29-48.983-104.233-105.462-16.804-73.358 7.527-145.819 66.017-187.218z" class="cls-1" transform="translate(-12.834 5.682)"/>
        </clipPath>
        <clipPath id="clip-path-2">
            <path id="Path_9324" d="M278.609 189.217l.105-30.332v-1.443a1 1 0 0 1 .027-.274c.027-.091 0-.114 0-.174s.032-.219.046-.329a.831.831 0 0 1 .037-.251v-.091c.027-.164.059-.333.091-.5a.33.33 0 0 1 .027-.16v-.023q.069-.343.151-.69v-.037a.99.99 0 0 1 .059-.228c.037-.151.078-.3.119-.457l.027-.082c.032-.105.064-.206.1-.311s.064-.224.1-.338l.041-.114.123-.361c.041-.119.064-.192.1-.288l.05-.128c.05-.137.105-.279.16-.416s.069-.178.105-.269l.05-.114c.064-.155.132-.311.206-.457s.073-.174.114-.26l.041-.082c.11-.233.224-.457.338-.7l.069-.142c.155-.306.32-.607.493-.913l.046-.082.087-.142q.251-.429.521-.854l.087-.137.137-.059q.42-.649.882-1.274l.069-.1.064-.082q.329-.457.671-.868l.105-.128q.3-.365.617-.722l.215-.242q.3-.333.607-.653l.16-.169q.384-.393.786-.772l.055-.055.087-.073c.384-.356.776-.7 1.178-1.037l.027-.023.11-.087q.384-.315.781-.612l.132-.105.123-.087q.311-.228.63-.457l.169-.119.055-.037c.224-.151.457-.3.681-.457l.114-.073q.388-.238.781-.457c.187-.105.375-.2.562-.3l.21-.114q.365-.187.735-.361h.027l.215-.1.457-.21.073-.027.269-.105.365-.146.242-.091 243.58-88.65.457-.16.365-.114.21-.069.105-.032q.338-.1.667-.183h.064l.164-.037.434-.1.242-.046.238-.046.183-.037.553-.082h.082q.338-.046.671-.069h2.165l.365.041.311.032h.073l.279.05c.155.027.315.05.457.082h.087l.2.05c.2.046.393.1.585.155l.142.037.26.091.2.069c.21.078.416.155.617.247.119.05.228.114.343.169s.219.1.324.16.242.146.365.219.178.1.265.16.265.187.4.283l.2.142q.288.224.557.457l14.098 12.895a6.515 6.515 0 0 0-.557-.457l-.119-.082c-.155-.119-.315-.233-.457-.343l-.237-.142c-.133-.078-.26-.16-.393-.233l-.265-.132c-.132-.069-.265-.137-.4-.2-.2-.091-.406-.169-.617-.247l-.2-.069-.4-.128c-.192-.059-.388-.11-.589-.155l-.279-.064c-.155-.032-.311-.055-.457-.082l-.347-.055-.311-.032-.457-.046h-1.877a6.857 6.857 0 0 0-.8.078h-.078c-.242.032-.489.073-.735.119l-.233.046q-.338.069-.681.151l-.16.037q-.416.105-.836.233l-.21.069c-.269.087-.544.174-.818.274l-243.637 88.63c-.206.073-.407.155-.607.238l-.269.105-.553.242-.215.1q-.384.178-.767.375l-.238.128-.539.288q-.393.219-.781.457l-.128.082a7.026 7.026 0 0 0-.676.457l-.224.155q-.315.219-.63.457l-.26.192q-.4.3-.781.612l-.142.11c-.4.333-.795.681-1.178 1.037l-.142.128q-.4.379-.79.772l-.16.169q-.311.32-.607.653l-.219.242q-.315.356-.617.722l-.105.128q-.347.425-.671.868l-.132.178c-.306.42-.6.845-.882 1.279l-.119.192q-.269.425-.521.859l-.128.219c-.169.3-.333.6-.493.913l-.078.16c-.114.228-.228.457-.338.694l-.155.343c-.069.155-.137.311-.206.457s-.105.251-.155.379l-.164.416c-.054.137-.1.274-.146.416s-.087.242-.123.361-.1.3-.142.457-.064.206-.1.311c-.05.178-.1.352-.142.53a1.092 1.092 0 0 1-.059.233q-.091.375-.169.749a.312.312 0 0 1-.027.155c-.037.2-.073.4-.105.594a1.586 1.586 0 0 1-.037.251c-.023.164-.046.329-.064.493a.963.963 0 0 1-.027.279 3.2 3.2 0 0 0-.037.457 2.693 2.693 0 0 0 0 .274v.69l-.105 30.332-.776 220.38-14.113-12.894z" class="cls-1" transform="translate(-12.834 5.682)"/>
        </clipPath>
        <clipPath id="clip-path-3">
            <path id="Path_9369" d="M256.5 331.828s-16.443 40.878-14.89 53.041c2 15.442 21.855 55.06 21.855 55.06a10.582 10.582 0 0 0 11.418-1.9s-5.065-37.79-13.935-52.981l17.991-46.587z" class="cls-1" transform="translate(-12.834 5.682)"/>
        </clipPath>
        <clipPath id="clip-path-4">
            <path id="Path_9371" d="M268.1 334.994l11.784 110a8.571 8.571 0 0 0 9.5.21c5.065-3.17 5.07-111.476 5.07-111.476z" class="cls-1" transform="translate(-12.834 5.682)"/>
        </clipPath>
        <clipPath id="clip-path-5">
            <path id="Path_9373" d="M268.1 334.994l.027.26-11.642-3.426s-16.443 40.878-14.89 53.041c2 15.442 21.855 55.06 21.855 55.06a10.582 10.582 0 0 0 11.418-1.9s-5.065-37.79-13.935-52.981l9.815-25.422 9.135 85.382a8.571 8.571 0 0 0 9.5.21c5.065-3.17 5.07-111.49 5.07-111.49z" class="cls-1" transform="translate(-12.834 5.682)"/>
        </clipPath>
        <clipPath id="clip-path-6">
            <path id="Path_9390" d="M274.956 267.141s-.959 4.974-1.229 7.221c-.206 1.695.128 7.175 3.75 7.079 2.069-.055 3.905-1.768 5.248-3.869a14.917 14.917 0 0 0 2.243-6.8l1.119-13.245z" class="cls-1" transform="translate(-12.834 5.682)"/>
        </clipPath>
        <clipPath id="clip-path-7">
            <path id="Path_9393" d="M286.95 259.015l-2.261 6.349a5.746 5.746 0 0 1-4.038 3.654l-7.239 1.937a3.261 3.261 0 0 1-3.983-2.284 34.136 34.136 0 0 1 .667-20.421c4.704-12.743 21.846-4.709 16.854 10.765z" class="cls-1" transform="translate(-12.834 5.682)"/>
        </clipPath>
        <clipPath id="clip-path-9">
            <path id="Path_9399" d="M290.864 245.724a5.56 5.56 0 0 0-5.8-2.676s-.457-2.389-5.353-2.407c-10.277-.041-11.418 9.2-11.418 9.2 2.96 3.882 10.217 3.037 13.725 2.357a35.388 35.388 0 0 1-2.453 2.951 7.062 7.062 0 0 0 4.111-1.37c-.457 3.741-1.037 11.336 1.827 11.382 2.159.052 7.265-15.961 5.361-19.437z" class="cls-1" transform="translate(-12.834 5.682)"/>
        </clipPath>
        <clipPath id="clip-path-10">
            <path id="Path_9430" d="M587.656 280.436c-.754-8.678-2.635-53.63-2.635-53.63l-25.621 9.135.082.913-13.382 2.335s-4.49 42.682-4.49 52.369 4.079 59.184 4.079 59.184 4.937 2.74 12.455 1.069c3.759-.836 4.832-58.887 4.832-58.887.639-3.247 1.32-6.609 2.01-10.007.251 1.416.5 2.681.745 3.75 2.823 12.419 18.63 54.192 18.63 54.192 6.851 4.517 12.7-2.069 12.7-2.069s-8.651-49.676-9.405-58.354z" class="cls-1" transform="translate(-12.834 5.682)"/>
        </clipPath>
        <clipPath id="clip-path-11">
            <path id="Path_9436" d="M565.728 162.059l1.306 16.251-10.884-.58.658-15.351z" class="cls-1" transform="translate(-12.834 5.682)"/>
        </clipPath>
        <clipPath id="clip-path-12">
            <path id="Path_9439" d="M559.548 170.518s-6.673 3.782-7.728 3.878-5.481-7.395-4.992-19.8c.3-7.81 13.7-10.048 16.991-7.1 5.093 4.567 5.024 8.925 3.713 11.875-1.544 3.529-7.984 11.147-7.984 11.147z" class="cls-1" transform="translate(-12.834 5.682)"/>
        </clipPath>
        <clipPath id="clip-path-13">
            <path id="Path_9445" d="M566.1 168.92s8.271-16.232-.279-21.882-16.525.26-16.525.26-2.74-3.832-5.3-1.425.539 8.929 3.147 9a68.811 68.811 0 0 0 8.5-.877l.681 7.454s.827 10.74 9.776 7.47z" class="cls-1" transform="translate(-12.834 5.682)"/>
        </clipPath>
        <clipPath id="clip-path-14">
            <path id="Path_9454" d="M552.83 180.411c-2.74-1.745-7.947.187-10.875 7.006s-9.925 18.411-9.925 18.411l-13.771-8.806s-7.157 2.512-6.906 8.81l22.837 18.055a3 3 0 0 0 4.165-.457c4.17-5.052 24.865-30.186 26.23-32.351 1.737-2.771-11.755-10.668-11.755-10.668z" class="cls-1" transform="translate(-12.834 5.682)"/>
        </clipPath>
        <clipPath id="clip-path-15">
            <path id="Path_9464" d="M473.015 364.2l-102.688 36.728 33.282 22.54-.9 47.172 102.684-36.74.9-47.167z" class="cls-1" transform="translate(-12.834 5.682)"/>
        </clipPath>
        <clipPath id="clip-path-16">
            <path id="Path_9471" d="M476.294 432.365c.4 1.978 2.361 12.789 2.8 13.844s14.616 6.445 15.958 3.722-10.843-9.1-10.843-9.1l-1.37-9.24z" class="cls-1" transform="translate(-12.834 5.682)"/>
        </clipPath>
        <clipPath id="clip-path-17">
            <path id="Path_9476" d="M498.062 435.27c.987 1.713 6.18 11.14 6.915 11.985s15.383.8 15.739-2.229-12.917-5.143-12.917-5.143l-4.019-7.682z" class="cls-1" transform="translate(-12.834 5.682)"/>
        </clipPath>
        <clipPath id="clip-path-18">
            <path id="Path_9490" d="M434.983 311.91v16.077s4.266 9.085 9.422 8.089c4.969-.941 1.772-10.222 1.772-10.222v-8.568z" class="cls-1" transform="translate(-12.834 5.682)"/>
        </clipPath>
        <clipPath id="clip-path-19">
            <path id="Path_9493" d="M451.768 308.818c0-.685-.023-1.092-.023-1.092l-.064.032a10.962 10.962 0 1 0-16.566 10.834c2.617 3.1 7.4 8.249 11.9 7.956 4.7-.3 4.777-12.962 4.755-17.31v-.292c.002-.101-.002-.082-.002-.128z" class="cls-1" transform="translate(-12.834 5.682)"/>
        </clipPath>
        <style>
            .cls-1{fill:none}.cls-3{fill:#f1f6ff}.cls-8{fill:#ff5700}.cls-9{fill:#fff}.cls-10{fill:#dfecff}.cls-64{opacity:.3}.cls-13,.cls-18{fill:#c0d9fc}.cls-17{opacity:.5}.cls-18,.cls-59{opacity:.35}.cls-34{fill:#13cf67}.cls-35{opacity:.6}.cls-36{fill:#f2f7ff}.cls-37,.cls-64{fill:#0059ce}.cls-48{fill:#f09982}.cls-51{fill:#d5e7ff}.cls-56{fill:#ef9881}.cls-60{clip-path:url(#clip-path-7)}.cls-98{fill:#ebf5ff}.cls-105{fill:#f14c03}
        </style>
    </defs>
    <g id="Group" transform="translate(35.996)">
        <path id="Mask" d="M0 0H416V456H0z" class="cls-1"/>
        <g id="_3" transform="translate(-224.635 -25.322)">
            <g id="Layer_1">
                <g id="Group_5905" opacity="0.7">
                    <path id="Path_9305" d="M272.7 95.782c52.315-37.019 120.163-10.825 172.363 9.409 50.812 19.695 101.756 21.663 153.244 34.415 107.863 26.71 92.622 175.592 15.8 237.2-82.509 66.172-213.9 51.611-303.191 11.656-47.575-21.287-91.29-48.983-104.233-105.462-16.804-73.358 7.527-145.819 66.017-187.218z" class="cls-3" transform="translate(-12.834 5.682)"/>
                    <path id="Path_9306" d="M466.607 56.4c15.118-79.216 187.879-.256 115.1 45.98-25.447 16.161-123.741-.72-115.1-45.98z" class="cls-3" transform="translate(-12.834 5.682)"/>
                    <path id="Path_9307" d="M400.179 56.4c.795 15.47 39.521 22.787 39.521 4.567s-40.361-20.98-39.521-4.567z" class="cls-3" transform="translate(-12.834 5.682)"/>
                    <g id="Group_5904" clip-path="url(#clip-path)">
                        <path id="Path_9308" fill="url(#linear-gradient)" d="M242.011 475.006a578.512 578.512 0 0 0 52.251-46.336c6.942-6.952 13.784-14.191 18.324-22.759 13.981-26.363 3.357-57.786-3.183-86.652-9.053-39.969-9.171-83.711 11.5-119.537 13.93-24.143 36.123-42.819 54.046-64.436s32.109-49.2 25.577-76.051c-8.472-34.895-48.04-54.388-84.948-61.015C240.846-15.2 160.4 6.591 103.136 54.3S12.56 174.35 12.834 246.853 46.5 390.907 101.679 440.8c10.1 9.135 21.133 17.712 34.086 22.567 12.4 4.645 26.034 5.65 39.33 5.052a170.317 170.317 0 0 0 73.42-20.361" transform="translate(-12.834 5.682)"/>
                        <path id="Path_9309" fill="url(#linear-gradient-2)" d="M571.871 445.469c-101.4 13.889-204.262-65.674-179.593-176.054 22.1-98.861 102.432-63.528 235.279-163.991C737.269 22.462 775 184.8 754.274 271.3c-22.431 93.578-91.092 161.687-182.403 174.169z" transform="translate(-12.834 5.682)"/>
                    </g>
                    <path id="Path_9311" fill="url(#linear-gradient-3)" d="M272.7 95.782c52.315-37.019 120.163-10.825 172.363 9.409 50.812 19.695 101.756 21.663 153.244 34.415 107.863 26.71 92.622 175.592 15.8 237.2-82.509 66.172-213.9 51.611-303.191 11.656-47.575-21.287-91.29-48.983-104.233-105.462-16.804-73.358 7.527-145.819 66.017-187.218z" transform="translate(-12.834 5.682)"/>
                </g>
                <path id="Path_9312" d="M309.59 128.037a1.174 1.174 0 0 1 .338-.068 1.105 1.105 0 0 1 .516.091 2.13 2.13 0 0 1 .845 2.526 34.159 34.159 0 0 0-1.2 6.851c-.05.694-.082 1.37-.091 2.06a30.088 30.088 0 0 0 3.654 15.187 18.857 18.857 0 0 0 8.39 8.011 15.006 15.006 0 0 0 1.411.548l.114.041a1.854 1.854 0 0 1 .941 1.631v.384a2.688 2.688 0 0 1-.055.37 1.982 1.982 0 0 1-1.133 1.466 1.182 1.182 0 0 1-.274.064h-.114a1.147 1.147 0 0 1-.365-.059 16.09 16.09 0 0 1-1.635-.639 21.638 21.638 0 0 1-9.706-9.267 34.457 34.457 0 0 1-4.248-17.109v-.795c0-.681.046-1.37.1-2.051a39.508 39.508 0 0 1 1.37-7.947A1.918 1.918 0 0 1 309.54 128" class="cls-8" transform="translate(-12.834 5.682)"/>
                <path id="Path_9313" d="M500.127 57.837a1.174 1.174 0 0 1 .338-.069 1.105 1.105 0 0 1 .516.091 2.13 2.13 0 0 1 .845 2.526 34.159 34.159 0 0 0-1.2 6.851c-.05.694-.082 1.37-.091 2.06a30.089 30.089 0 0 0 3.654 15.187 18.857 18.857 0 0 0 8.39 8.011 15 15 0 0 0 1.411.548l.114.041a1.854 1.854 0 0 1 .941 1.631v.386a2.7 2.7 0 0 1-.055.37 1.982 1.982 0 0 1-1.133 1.466 1.183 1.183 0 0 1-.274.064h-.114a1.147 1.147 0 0 1-.365-.059 16.1 16.1 0 0 1-1.635-.639 21.638 21.638 0 0 1-9.706-9.267 34.457 34.457 0 0 1-4.248-17.109v-.795c0-.681.046-1.37.1-2.051a39.506 39.506 0 0 1 1.37-7.947 1.918 1.918 0 0 1 1.092-1.329" class="cls-8" transform="translate(-12.834 5.682)"/>
                <path id="Path_9314" d="M279.866 207.792l-.749 220.353 275.22-100.172.754-220.353z" class="cls-9"/>
                <path id="Path_9315" d="M279.866 207.792L265.752 194.9 265 415.251l14.113 12.894z" class="cls-10"/>
                <path id="Path_9316" d="M284.186 203.7l266.319-96.933-.735 217.923-266.319 96.938.735-214.762" class="cls-3"/>
                <g id="Group_5906" opacity="0.3">
                    <path id="Path_9317" d="M308.677 153.372c-8.737 3.2-15.84 12.6-15.872 21.046l-.105 30.332 275.225-100.157.105-30.332c.027-8.445-7.029-12.711-15.767-9.528z" class="cls-10" transform="translate(-12.834 5.682)"/>
                </g>
                <path id="Path_9318" d="M308.677 150.723c-8.737 3.2-15.84 12.6-15.872 21.046L292.7 202.1l275.22-100.17.105-30.332c.027-8.445-7.029-12.711-15.767-9.528z" class="cls-10" transform="translate(-12.834 5.682)"/>
                <path id="Path_9319" fill="#f7faff" d="M552.263 63.66l-243.586 88.657c-8.737 3.2-15.84 12.6-15.872 21.046v-1.585c.027-8.441 7.134-17.858 15.872-21.056l243.586-88.656c8.737-3.2 15.794 1.087 15.767 9.528v1.37c-.091-8.285-7.102-12.464-15.767-9.304z" transform="translate(-12.834 5.682)"/>
                <path id="Path_9320" d="M278.692 158.885v-1.443a1 1 0 0 1 .027-.274c.027-.091 0-.114 0-.174s.032-.219.046-.329a.831.831 0 0 1 .037-.251v-.091c.027-.164.059-.333.091-.5a.33.33 0 0 1 .027-.16v-.023q.069-.343.151-.69v-.037a.99.99 0 0 1 .059-.228c.037-.151.078-.3.119-.457l.027-.082c.032-.105.064-.206.1-.311s.064-.224.1-.338l.041-.114.123-.361c.041-.119.064-.192.1-.288l.05-.128c.05-.137.105-.279.16-.416s.069-.178.105-.269l.05-.114c.064-.155.132-.311.206-.457s.073-.174.114-.26l.041-.082c.11-.233.224-.457.338-.7l.069-.142c.155-.306.32-.607.493-.913l.046-.082.087-.142q.251-.429.521-.854l.087-.137.16-.059q.42-.649.882-1.274l.069-.1.064-.082q.329-.457.671-.868l.105-.128q.3-.365.617-.722l.215-.242q.3-.333.607-.653l.16-.169q.384-.393.786-.772l.055-.055.087-.073c.384-.356.776-.7 1.178-1.037l.027-.023.11-.087q.384-.315.781-.612l.132-.105.123-.087q.311-.228.63-.457l.169-.119.055-.037c.224-.151.457-.3.681-.457l.114-.073q.388-.238.781-.457c.187-.105.375-.2.562-.3l.21-.114q.365-.187.735-.361h.027l.215-.1.457-.21.073-.027.269-.105.365-.146.242-.091L538.1 49.186l.457-.16.365-.114.21-.069.105-.032q.338-.1.667-.183h.064l.164-.037.434-.1.242-.046.238-.046.183-.037.553-.082h.082q.338-.046.671-.069h2.165l.365.041.311.032h.073l.279.05c.155.027.315.05.457.082h.087l.2.05c.2.046.393.1.585.155l.142.037.26.091.2.069c.21.078.416.155.617.247.119.05.228.114.343.169s.219.1.324.16.242.146.365.219.178.1.265.16.265.187.4.283l.2.142q.288.224.557.457l14.098 12.895a6.515 6.515 0 0 0-.557-.457l-.119-.082c-.155-.119-.315-.233-.457-.343l-.237-.142c-.133-.078-.26-.16-.393-.233l-.265-.132c-.132-.069-.265-.137-.4-.2-.2-.091-.406-.169-.617-.247l-.2-.069-.4-.128c-.192-.059-.388-.11-.589-.155l-.279-.064c-.155-.032-.311-.055-.457-.082l-.347-.055-.311-.032-.457-.046h-1.877a6.857 6.857 0 0 0-.8.078h-.078c-.242.032-.489.073-.735.119l-.233.046q-.338.069-.681.151l-.16.037q-.416.105-.836.233l-.21.069c-.269.087-.544.174-.818.274l-243.637 88.63c-.206.073-.407.155-.607.238l-.269.105-.553.242-.215.1q-.384.178-.767.375l-.238.128-.539.288q-.393.219-.781.457l-.128.082a7.026 7.026 0 0 0-.676.457l-.224.155q-.315.219-.63.457l-.26.192q-.4.3-.781.612l-.142.11c-.4.333-.795.681-1.178 1.037l-.142.128q-.4.379-.79.772l-.16.169q-.311.32-.607.653l-.219.242q-.315.356-.617.722l-.105.128q-.347.425-.671.868l-.132.178c-.306.42-.6.845-.882 1.279l-.119.192q-.269.425-.521.859l-.128.219c-.169.3-.333.6-.493.913l-.078.16c-.114.228-.228.457-.338.694l-.155.343c-.069.155-.137.311-.206.457s-.105.251-.155.379l-.164.416c-.054.137-.1.274-.146.416s-.087.242-.123.361-.1.3-.142.457-.064.206-.1.311c-.05.178-.1.352-.142.53a1.092 1.092 0 0 1-.059.233q-.091.375-.169.749a.312.312 0 0 1-.027.155c-.037.2-.073.4-.105.594a1.586 1.586 0 0 1-.037.251c-.023.164-.046.329-.064.493a.963.963 0 0 1-.027.279 3.2 3.2 0 0 0-.037.457 2.693 2.693 0 0 0 0 .274v.69l-.105 30.332-14.118-12.885z" class="cls-13" transform="translate(-12.834 5.682)"/>
                <path id="Path_9321" fill="url(#linear-gradient-4)" d="M278.692 158.885v-1.443a1 1 0 0 1 .027-.274c.027-.091 0-.114 0-.174s.032-.219.046-.329a.831.831 0 0 1 .037-.251v-.091c.027-.164.059-.333.091-.5a.33.33 0 0 1 .027-.16v-.023q.069-.343.151-.69v-.037a.99.99 0 0 1 .059-.228c.037-.151.078-.3.119-.457l.027-.082c.032-.105.064-.206.1-.311s.064-.224.1-.338l.041-.114.123-.361c.041-.119.064-.192.1-.288l.05-.128c.05-.137.105-.279.16-.416s.069-.178.105-.269l.05-.114c.064-.155.132-.311.206-.457s.073-.174.114-.26l.041-.082c.11-.233.224-.457.338-.7l.069-.142c.155-.306.32-.607.493-.913l.046-.082.087-.142q.251-.429.521-.854l.087-.137.16-.059q.42-.649.882-1.274l.069-.1.064-.082q.329-.457.671-.868l.105-.128q.3-.365.617-.722l.215-.242q.3-.333.607-.653l.16-.169q.384-.393.786-.772l.055-.055.087-.073c.384-.356.776-.7 1.178-1.037l.027-.023.11-.087q.384-.315.781-.612l.132-.105.123-.087q.311-.228.63-.457l.169-.119.055-.037c.224-.151.457-.3.681-.457l.114-.073q.388-.238.781-.457c.187-.105.375-.2.562-.3l.21-.114q.365-.187.735-.361h.027l.215-.1.457-.21.073-.027.269-.105.365-.146.242-.091L538.1 49.186l.457-.16.365-.114.21-.069.105-.032q.338-.1.667-.183h.064l.164-.037.434-.1.242-.046.238-.046.183-.037.553-.082h.082q.338-.046.671-.069h2.165l.365.041.311.032h.073l.279.05c.155.027.315.05.457.082h.087l.2.05c.2.046.393.1.585.155l.142.037.26.091.2.069c.21.078.416.155.617.247.119.05.228.114.343.169s.219.1.324.16.242.146.365.219.178.1.265.16.265.187.4.283l.2.142q.288.224.557.457l14.098 12.895a6.515 6.515 0 0 0-.557-.457l-.119-.082c-.155-.119-.315-.233-.457-.343l-.237-.142c-.133-.078-.26-.16-.393-.233l-.265-.132c-.132-.069-.265-.137-.4-.2-.2-.091-.406-.169-.617-.247l-.2-.069-.4-.128c-.192-.059-.388-.11-.589-.155l-.279-.064c-.155-.032-.311-.055-.457-.082l-.347-.055-.311-.032-.457-.046h-1.877a6.857 6.857 0 0 0-.8.078h-.078c-.242.032-.489.073-.735.119l-.233.046q-.338.069-.681.151l-.16.037q-.416.105-.836.233l-.21.069c-.269.087-.544.174-.818.274l-243.637 88.63c-.206.073-.407.155-.607.238l-.269.105-.553.242-.215.1q-.384.178-.767.375l-.238.128-.539.288q-.393.219-.781.457l-.128.082a7.026 7.026 0 0 0-.676.457l-.224.155q-.315.219-.63.457l-.26.192q-.4.3-.781.612l-.142.11c-.4.333-.795.681-1.178 1.037l-.142.128q-.4.379-.79.772l-.16.169q-.311.32-.607.653l-.219.242q-.315.356-.617.722l-.105.128q-.347.425-.671.868l-.132.178c-.306.42-.6.845-.882 1.279l-.119.192q-.269.425-.521.859l-.128.219c-.169.3-.333.6-.493.913l-.078.16c-.114.228-.228.457-.338.694l-.155.343c-.069.155-.137.311-.206.457s-.105.251-.155.379l-.164.416c-.054.137-.1.274-.146.416s-.087.242-.123.361-.1.3-.142.457-.064.206-.1.311c-.05.178-.1.352-.142.53a1.092 1.092 0 0 1-.059.233q-.091.375-.169.749a.312.312 0 0 1-.027.155c-.037.2-.073.4-.105.594a1.586 1.586 0 0 1-.037.251c-.023.164-.046.329-.064.493a.963.963 0 0 1-.027.279 3.2 3.2 0 0 0-.037.457 2.693 2.693 0 0 0 0 .274v.69l-.105 30.332-14.118-12.885z" transform="translate(-12.834 5.682)"/>
                <path id="Path_9322" fill="url(#linear-gradient-5)" d="M278.609 189.217l.105-30.332v-1.443a1 1 0 0 1 .027-.274c.027-.091 0-.114 0-.174s.032-.219.046-.329a.831.831 0 0 1 .037-.251v-.091c.027-.164.059-.333.091-.5a.33.33 0 0 1 .027-.16v-.023q.069-.343.151-.69v-.037a.99.99 0 0 1 .059-.228c.037-.151.078-.3.119-.457l.027-.082c.032-.105.064-.206.1-.311s.064-.224.1-.338l.041-.114.123-.361c.041-.119.064-.192.1-.288l.05-.128c.05-.137.105-.279.16-.416s.069-.178.105-.269l.05-.114c.064-.155.132-.311.206-.457s.073-.174.114-.26l.041-.082c.11-.233.224-.457.338-.7l.069-.142c.155-.306.32-.607.493-.913l.046-.082.087-.142q.251-.429.521-.854l.087-.137.137-.059q.42-.649.882-1.274l.069-.1.064-.082q.329-.457.671-.868l.105-.128q.3-.365.617-.722l.215-.242q.3-.333.607-.653l.16-.169q.384-.393.786-.772l.055-.055.087-.073c.384-.356.776-.7 1.178-1.037l.027-.023.11-.087q.384-.315.781-.612l.132-.105.123-.087q.311-.228.63-.457l.169-.119.055-.037c.224-.151.457-.3.681-.457l.114-.073q.388-.238.781-.457c.187-.105.375-.2.562-.3l.21-.114q.365-.187.735-.361h.027l.215-.1.457-.21.073-.027.269-.105.365-.146.242-.091 243.58-88.65.457-.16.365-.114.21-.069.105-.032q.338-.1.667-.183h.064l.164-.037.434-.1.242-.046.238-.046.183-.037.553-.082h.082q.338-.046.671-.069h2.165l.365.041.311.032h.073l.279.05c.155.027.315.05.457.082h.087l.2.05c.2.046.393.1.585.155l.142.037.26.091.2.069c.21.078.416.155.617.247.119.05.228.114.343.169s.219.1.324.16.242.146.365.219.178.1.265.16.265.187.4.283l.2.142q.288.224.557.457l14.098 12.895a6.515 6.515 0 0 0-.557-.457l-.119-.082c-.155-.119-.315-.233-.457-.343l-.237-.142c-.133-.078-.26-.16-.393-.233l-.265-.132c-.132-.069-.265-.137-.4-.2-.2-.091-.406-.169-.617-.247l-.2-.069-.4-.128c-.192-.059-.388-.11-.589-.155l-.279-.064c-.155-.032-.311-.055-.457-.082l-.347-.055-.311-.032-.457-.046h-1.877a6.857 6.857 0 0 0-.8.078h-.078c-.242.032-.489.073-.735.119l-.233.046q-.338.069-.681.151l-.16.037q-.416.105-.836.233l-.21.069c-.269.087-.544.174-.818.274l-243.637 88.63c-.206.073-.407.155-.607.238l-.269.105-.553.242-.215.1q-.384.178-.767.375l-.238.128-.539.288q-.393.219-.781.457l-.128.082a7.026 7.026 0 0 0-.676.457l-.224.155q-.315.219-.63.457l-.26.192q-.4.3-.781.612l-.142.11c-.4.333-.795.681-1.178 1.037l-.142.128q-.4.379-.79.772l-.16.169q-.311.32-.607.653l-.219.242q-.315.356-.617.722l-.105.128q-.347.425-.671.868l-.132.178c-.306.42-.6.845-.882 1.279l-.119.192q-.269.425-.521.859l-.128.219c-.169.3-.333.6-.493.913l-.078.16c-.114.228-.228.457-.338.694l-.155.343c-.069.155-.137.311-.206.457s-.105.251-.155.379l-.164.416c-.054.137-.1.274-.146.416s-.087.242-.123.361-.1.3-.142.457-.064.206-.1.311c-.05.178-.1.352-.142.53a1.092 1.092 0 0 1-.059.233q-.091.375-.169.749a.312.312 0 0 1-.027.155c-.037.2-.073.4-.105.594a1.586 1.586 0 0 1-.037.251c-.023.164-.046.329-.064.493a.963.963 0 0 1-.027.279 3.2 3.2 0 0 0-.037.457 2.693 2.693 0 0 0 0 .274v.69l-.105 30.332-.776 220.38-14.113-12.894z" transform="translate(-12.834 5.682)"/>
                <g id="Group_5908" clip-path="url(#clip-path-2)">
                    <g id="Group_5907" class="cls-17">
                        <path id="Path_9323" d="M278.285 206.212l-.754 220.353 275.226-100.172.749-220.353z" class="cls-13"/>
                    </g>
                </g>
                <path id="Path_9325" d="M524.626 85.579c4.851-1.768 8.774.6 8.756 5.294s-3.965 9.92-8.815 11.688-8.774-.6-8.756-5.294 3.965-9.92 8.815-11.688" class="cls-13" transform="translate(-12.834 5.682)"/>
                <path id="Path_9326" d="M521.37 100.185c4.851-1.768 8.8-7 8.815-11.688a6.393 6.393 0 0 0-.827-3.3c2.43.626 4.037 2.667 4.028 5.668 0 4.686-3.965 9.92-8.815 11.688-3.517 1.279-6.536.379-7.929-2a8.02 8.02 0 0 0 4.727-.375z" class="cls-18" transform="translate(-12.834 5.682)"/>
                <path id="Path_9327" d="M334.076 155.779c4.851-1.768 8.774.6 8.756 5.294s-3.964 9.92-8.815 11.688-8.774-.6-8.756-5.294 3.964-9.92 8.815-11.688" class="cls-13" transform="translate(-12.834 5.682)"/>
                <path id="Path_9328" d="M330.819 170.363c4.851-1.768 8.8-7 8.815-11.688a6.394 6.394 0 0 0-.827-3.3c2.43.626 4.038 2.667 4.028 5.668 0 4.686-3.964 9.92-8.815 11.688-3.517 1.279-6.536.379-7.929-2a8.02 8.02 0 0 0 4.728-.368z" class="cls-18" transform="translate(-12.834 5.682)"/>
                <g id="Group_5909" opacity="0.8">
                    <path id="Path_9329" fill="url(#linear-gradient-6)" d="M308.677 150.723c-8.737 3.2-15.84 12.6-15.872 21.046L292.7 202.1l275.22-100.17.105-30.332c.027-8.445-7.029-12.711-15.767-9.528z" transform="translate(-12.834 5.682)"/>
                </g>
                <path id="Path_9330" d="M324.6 109.521a17.356 17.356 0 0 1 4.942-1.032 15.762 15.762 0 0 1 1.777 0 16.643 16.643 0 0 1 6.029 1.448 20.717 20.717 0 0 1 8.372 7.166 33.529 33.529 0 0 1 5.577 19.315v.681q0 1.023-.1 2.051a37.453 37.453 0 0 1-5.577 17.356 24.635 24.635 0 0 1-11.692 10.08 1.224 1.224 0 0 1-.347.073h-.055a1.124 1.124 0 0 1-.457-.1 1.74 1.74 0 0 1-.913-1.37 2.266 2.266 0 0 1 1.144-2.489 21.268 21.268 0 0 0 10.108-8.71 32.4 32.4 0 0 0 4.823-15.013c.05-.694.078-1.37.087-2.064a29.047 29.047 0 0 0-4.814-17 17.982 17.982 0 0 0-7.23-6.193 14.469 14.469 0 0 0-5.225-1.251 15.264 15.264 0 0 0-1.535 0 15 15 0 0 0-4.271.913 18.978 18.978 0 0 0-6.815 4.449 28.453 28.453 0 0 0-7.1 12.5 1.932 1.932 0 0 1-1.1 1.334 1.187 1.187 0 0 1-.333.069 1.16 1.16 0 0 1-.516-.1 1.672 1.672 0 0 1-.868-1.137v-1.388a33.1 33.1 0 0 1 8.221-14.451 21.969 21.969 0 0 1 7.861-5.12" class="cls-8" transform="translate(-12.834 5.682)"/>
                <path id="Path_9331" d="M321.25 128.128c.4.142.79.3 1.174.457a20.718 20.718 0 0 1 8.372 7.166 28.507 28.507 0 0 1 3.1 5.787 35.991 35.991 0 0 1 2.475 13.529v.681q0 1.023-.1 2.051a36.366 36.366 0 0 1-.457 3.686 17.081 17.081 0 0 1-2.553 1.224 1.9 1.9 0 0 0-1.046 1.238 34.556 34.556 0 0 0 1.051-6.289c.05-.694.078-1.37.087-2.064a30.821 30.821 0 0 0-2.535-12.939 24.315 24.315 0 0 0-2.284-4.056 17.982 17.982 0 0 0-7.23-6.193 14.469 14.469 0 0 0-5.225-1.251 15.268 15.268 0 0 0-1.535 0 14.81 14.81 0 0 0-3.2.553z" class="cls-3" transform="translate(-12.834 5.682)"/>
                <path id="Path_9332" d="M511.934 58.823c.4.142.79.3 1.174.457a20.718 20.718 0 0 1 8.372 7.166 28.511 28.511 0 0 1 3.1 5.787 35.992 35.992 0 0 1 2.494 13.542v.681q0 1.023-.1 2.051a36.383 36.383 0 0 1-.457 3.686 17.084 17.084 0 0 1-2.553 1.224 1.9 1.9 0 0 0-1.046 1.238 34.559 34.559 0 0 0 1.05-6.289c.05-.694.078-1.37.087-2.064a30.821 30.821 0 0 0-2.535-12.939 24.314 24.314 0 0 0-2.284-4.056A17.982 17.982 0 0 0 512 63.116a14.471 14.471 0 0 0-5.225-1.251 15.264 15.264 0 0 0-1.535 0 14.808 14.808 0 0 0-3.2.553z" class="cls-3" transform="translate(-12.834 5.682)"/>
                <path id="Path_9333" d="M515.154 39.32a17.356 17.356 0 0 1 4.942-1.032 15.767 15.767 0 0 1 1.777 0 16.644 16.644 0 0 1 6.029 1.448 20.718 20.718 0 0 1 8.372 7.166 33.529 33.529 0 0 1 5.577 19.315v.683q0 1.023-.1 2.051a37.452 37.452 0 0 1-5.579 17.349 24.634 24.634 0 0 1-11.692 10.08 1.225 1.225 0 0 1-.347.073h-.055a1.124 1.124 0 0 1-.457-.1 1.74 1.74 0 0 1-.913-1.37 2.266 2.266 0 0 1 1.146-2.485 21.268 21.268 0 0 0 10.108-8.71 32.4 32.4 0 0 0 4.823-15.013c.05-.694.078-1.37.087-2.064a29.048 29.048 0 0 0-4.814-17 17.982 17.982 0 0 0-7.23-6.193 14.47 14.47 0 0 0-5.234-1.229 15.267 15.267 0 0 0-1.535 0 15 15 0 0 0-4.27.913A18.977 18.977 0 0 0 509 47.633a28.455 28.455 0 0 0-7.1 12.5 1.932 1.932 0 0 1-1.1 1.334 1.188 1.188 0 0 1-.333.069 1.16 1.16 0 0 1-.516-.1 1.672 1.672 0 0 1-.868-1.137V58.91a33.1 33.1 0 0 1 8.217-14.451 21.969 21.969 0 0 1 7.86-5.12" class="cls-8" transform="translate(-12.834 5.682)"/>
                <path id="Path_9334" fill="url(#linear-gradient-7)" d="M292.8 171.779c.027-8.441 7.134-17.858 15.872-21.056l243.591-88.657c8.737-3.2 15.794 1.087 15.767 9.528l-.854 250.689-275.225 100.2z" opacity="0.5" transform="translate(-12.834 5.682)"/>
                <path id="Path_9335" fill="url(#linear-gradient-8)" d="M478.112 223.029l43.641-15.885-.146 42.175-43.636 15.881.142-42.171"/>
                <path id="Path_9336" fill="url(#linear-gradient-9)" d="M424.889 242.4l43.641-15.885-.142 42.175-43.646 15.885.146-42.175"/>
                <path id="Path_9337" fill="url(#linear-gradient-10)" d="M371.665 261.774l43.646-15.885-.146 42.171-43.641 15.885.142-42.17"/>
                <path id="Path_9338" fill="url(#linear-gradient-11)" d="M318.446 281.144l43.641-15.885-.142 42.171-43.645 15.885.146-42.171"/>
                <path id="Path_9339" fill="url(#linear-gradient-12)" d="M477.939 274.079l43.637-15.885-.142 42.175-43.634 15.88.142-42.171"/>
                <path id="Path_9340" fill="url(#linear-gradient-13)" d="M424.711 293.449l43.646-15.885-.142 42.175-43.646 15.885.142-42.175"/>
                <path id="Path_9341" fill="url(#linear-gradient-14)" d="M371.492 312.819l43.646-15.881-.146 42.171-43.642 15.885.142-42.175"/>
                <path id="Path_9342" fill="url(#linear-gradient-15)" d="M318.273 332.194l43.641-15.885-.142 42.171-43.646 15.885.146-42.171"/>
                <path id="Path_9343" fill="url(#linear-gradient-16)" d="M478.286 171.98l43.641-15.885-.146 42.175-43.637 15.88.142-42.171" opacity="0.3"/>
                <path id="Path_9344" fill="url(#linear-gradient-17)" d="M425.062 191.354l43.638-15.885-.142 42.171-43.646 15.885.146-42.171" opacity="0.3"/>
                <path id="Path_9345" fill="url(#linear-gradient-18)" d="M371.839 210.725l43.646-15.885-.146 42.171L371.7 252.9l.142-42.171" opacity="0.3"/>
                <path id="Path_9346" fill="url(#linear-gradient-19)" d="M318.62 230.095l43.641-15.885-.142 42.171-43.646 15.885.146-42.171" opacity="0.3"/>
                <path id="Path_9347" d="M510.965 170.664l-14.716 19.726-8.591-5.1-4.312 5.718 14.346 8.578 19.028-25.509-4.316-2.549" class="cls-34"/>
                <path id="Path_9348" d="M351.126 279.824l-14.716 19.731-8.587-5.106-4.316 5.723 14.346 8.578 19.032-25.513-4.321-2.544" class="cls-34"/>
                <path id="Path_9349" d="M404.345 260.454l-14.711 19.731-8.591-5.106-4.313 5.721 14.346 8.578 19.024-25.512-4.316-2.544" class="cls-34"/>
                <g id="Group_5910" class="cls-35">
                    <path id="Path_9350" d="M456.426 291.923l-4.618 1.681-1.1 14.88-8.258-11.478-4.27 1.553-1.681 22.7 4.618-1.676 1.092-14.757 8.3 11.336 4.239-1.539 1.681-22.7" class="cls-9"/>
                </g>
                <g id="Group_5911" class="cls-35">
                    <path id="Path_9351" d="M362.37 223.961l-4.745 1.726-1.082 14.613a7.787 7.787 0 0 1-1.142 3.713 5.691 5.691 0 0 1-2.955 2.233 4.919 4.919 0 0 1-1.777.37 1.663 1.663 0 0 1-1.114-.416 2.092 2.092 0 0 1-.585-1.119 8.712 8.712 0 0 1-.183-1.713l-4.746 1.726q-.128 4.257 1.918 5.481t6.248-.292a15.734 15.734 0 0 0 3.508-1.786 12.989 12.989 0 0 0 2.777-2.544 12.511 12.511 0 0 0 1.9-3.243 12.816 12.816 0 0 0 .886-3.841l1.105-14.912" class="cls-9" transform="translate(-12.834 5.682)"/>
                </g>
                <g id="Group_5912" class="cls-35">
                    <path id="Path_9352" d="M401.9 209.8l-14.931 5.435-1.685 22.7 4.746-1.726.685-9.222 9.582-3.489.3-4.07-9.582 3.489.393-5.344 10.19-3.709.3-4.07" class="cls-9"/>
                </g>
                <g id="Group_5913" class="cls-35">
                    <path id="Path_9353" d="M510.509 232.178l3.343-9.135 2.169 7.134-5.508 2.005m6.129-15.415l-4.522 1.644-10.22 25.811 4.905-1.786 2.2-5.91 7.961-2.9 1.434 4.574 5.093-1.854-6.851-19.6" class="cls-9" transform="translate(-12.834 5.682)"/>
                </g>
                <g id="Group_5914" class="cls-35">
                    <path id="Path_9354" d="M457.6 191.555l-5.54 2.019-7.084 19.069-4.412-14.885-5.7 2.074-1.685 22.7 4.266-1.553 1.119-15.1 4.106 13.2 3.69-1.347 6.312-17.023-1.119 15.136 4.362-1.589 1.681-22.7" class="cls-9"/>
                </g>
                <g id="Group_5915" class="cls-35">
                    <path id="Path_9355" d="M464.807 236.695l-4.745 1.722-1.082 14.616a7.8 7.8 0 0 1-1.142 3.713 5.7 5.7 0 0 1-2.955 2.238 4.915 4.915 0 0 1-1.777.365 1.681 1.681 0 0 1-1.114-.411 2.106 2.106 0 0 1-.585-1.119 8.749 8.749 0 0 1-.183-1.713l-4.745 1.726q-.128 4.257 1.918 5.481t6.248-.3a15.735 15.735 0 0 0 3.508-1.786 12.945 12.945 0 0 0 2.777-2.544 12.514 12.514 0 0 0 1.9-3.243 12.816 12.816 0 0 0 .872-3.859l1.105-14.912" class="cls-9" transform="translate(-12.834 5.682)"/>
                </g>
                <g id="Group_5916" class="cls-35">
                    <path id="Path_9356" d="M405.5 328.147q-2.992 1.087-4.307-.411t-1.037-5.28a13.7 13.7 0 0 1 1.9-6.34 8.824 8.824 0 0 1 4.608-3.654q2.992-1.087 4.307.429t1.014 5.248a13.67 13.67 0 0 1-1.9 6.353 8.842 8.842 0 0 1-4.608 3.654m1.5-19.79a17.561 17.561 0 0 0-8.18 6.1 18.233 18.233 0 0 0-2.443 4.54 19.113 19.113 0 0 0-1.114 5.234 12.934 12.934 0 0 0 .379 4.686 5.937 5.937 0 0 0 1.873 2.969 5.394 5.394 0 0 0 3.229 1.146 11.675 11.675 0 0 0 4.49-.831 17.787 17.787 0 0 0 4.645-2.494 17.127 17.127 0 0 0 3.59-3.6 17.857 17.857 0 0 0 2.38-4.517 19.729 19.729 0 0 0 1.083-5.221 13.245 13.245 0 0 0-.365-4.7 5.937 5.937 0 0 0-1.827-2.983 5.294 5.294 0 0 0-3.2-1.151 11.646 11.646 0 0 0-4.49.831" class="cls-9" transform="translate(-12.834 5.682)"/>
                </g>
                <g id="Group_5917" class="cls-35">
                    <path id="Path_9357" d="M507.334 289.169l1.082-14.616 3.759-1.37a6.97 6.97 0 0 1 2.814-.53 2.74 2.74 0 0 1 1.79.74 3.489 3.489 0 0 1 .914 1.886 11.138 11.138 0 0 1 .114 2.882 13.528 13.528 0 0 1-.607 3.2 10.569 10.569 0 0 1-1.37 2.772 9.771 9.771 0 0 1-2.229 2.284 12.454 12.454 0 0 1-3.2 1.672l-3.056 1.114m5.111-20.069l-8.482 3.083-1.681 22.7 7.705-2.8a22.688 22.688 0 0 0 5.024-2.539 17.977 17.977 0 0 0 3.887-3.549 17.111 17.111 0 0 0 2.608-4.444 17.575 17.575 0 0 0 1.178-5.257q.411-5.563-2.284-7.335t-7.924.132" class="cls-9" transform="translate(-12.834 5.682)"/>
                </g>
                <g id="Group_5918" class="cls-35">
                    <path id="Path_9358" d="M353.825 327.8a19.639 19.639 0 0 0-3.594 1.727 15.027 15.027 0 0 0-2.877 2.284 10.907 10.907 0 0 0-1.964 2.74 8.153 8.153 0 0 0-.863 3.1 6.07 6.07 0 0 0 .27 2.622 2.8 2.8 0 0 0 1.233 1.48 4.467 4.467 0 0 0 2.147.5 15.53 15.53 0 0 0 3.025-.3l2.917-.534a2.985 2.985 0 0 1 2.366.238 1.631 1.631 0 0 1 .544 1.425 4.175 4.175 0 0 1-.292 1.251 4.111 4.111 0 0 1-.754 1.188 6.526 6.526 0 0 1-1.288 1.087 9.091 9.091 0 0 1-1.9.914q-2.32.845-3.444.324t-1.128-2.558l-4.8 1.749q-.105 3.932 2.211 5.024t6.965-.639a18.433 18.433 0 0 0 3.919-1.937 14.242 14.242 0 0 0 2.859-2.462 11.159 11.159 0 0 0 1.827-2.791 8.8 8.8 0 0 0 .758-2.951q.228-3.078-1.37-4.111t-5.252-.379l-3.074.53a3.908 3.908 0 0 1-2.361-.1q-.671-.379-.576-1.644a3.06 3.06 0 0 1 .26-.991 3.434 3.434 0 0 1 .726-1.023 6.944 6.944 0 0 1 1.3-1 11.046 11.046 0 0 1 2-.914 4.071 4.071 0 0 1 2.978-.279 2.592 2.592 0 0 1 1.151 2.206l4.526-2.206a7.6 7.6 0 0 0-.457-2.334 3.133 3.133 0 0 0-1.37-1.626 4.8 4.8 0 0 0-2.558-.534 13.281 13.281 0 0 0-4.111.913" class="cls-9" transform="translate(-12.834 5.682)"/>
                </g>
                <path id="Path_9359" d="M293.44 449.831a22.168 22.168 0 0 0-13.423-2.526 9.128 9.128 0 0 0-4.074-4.471c-5.938-3.572-15.529-3.572-21.439 0s-5.938 9.359 0 12.93a22.168 22.168 0 0 0 13.424 2.526 9.128 9.128 0 0 0 4.072 4.471c5.938 3.572 15.529 3.572 21.439 0s5.925-9.361.001-12.93z" class="cls-36" transform="translate(-12.834 5.682)"/>
                <path id="Path_9360" d="M281.866 444.547c0 .457-1.681 3.713-2.032 4.6s-.886 13.086 1.325 13.88 7.956-11.409 7.956-12.912-1.5-6.1-1.5-6.1z" class="cls-37" transform="translate(-12.834 5.682)"/>
                <path id="Path_9361" fill="url(#linear-gradient-20)" d="M281.866 444.547c0 .457-1.681 3.713-2.032 4.6s-.886 13.086 1.325 13.88 7.956-11.409 7.956-12.912-1.5-6.1-1.5-6.1z" transform="translate(-12.834 5.682)"/>
                <path id="Path_9362" d="M265.542 440.1l1.229 2.708s-9.8 7.819-8.715 10.158 15.6-5.093 16.132-6.8-1.37-7.568-1.37-7.568z" class="cls-37" transform="translate(-12.834 5.682)"/>
                <path id="Path_9363" fill="url(#linear-gradient-21)" d="M265.542 440.1l1.229 2.708s-9.8 7.819-8.715 10.158 15.6-5.093 16.132-6.8-1.37-7.568-1.37-7.568z" transform="translate(-12.834 5.682)"/>
                <path id="Path_9364" d="M256.5 331.828s-16.443 40.878-14.89 53.041c2 15.442 21.855 55.06 21.855 55.06a10.582 10.582 0 0 0 11.418-1.9s-5.065-37.79-13.935-52.981l17.991-46.587z" class="cls-8" transform="translate(-12.834 5.682)"/>
                <path id="Path_9365" fill="url(#linear-gradient-22)" d="M256.5 331.828s-16.443 40.878-14.89 53.041c2 15.442 21.855 55.06 21.855 55.06a10.582 10.582 0 0 0 11.418-1.9s-5.065-37.79-13.935-52.981l17.991-46.587z" transform="translate(-12.834 5.682)"/>
                <path id="Path_9366" d="M268.1 334.994l11.784 110a8.571 8.571 0 0 0 9.5.21c5.065-3.17 5.07-111.476 5.07-111.476z" class="cls-8" transform="translate(-12.834 5.682)"/>
                <path id="Path_9367" fill="url(#linear-gradient-23)" d="M268.1 334.994l11.784 110a8.571 8.571 0 0 0 9.5.21c5.065-3.17 5.07-111.476 5.07-111.476z" transform="translate(-12.834 5.682)"/>
                <g id="Group_5919" clip-path="url(#clip-path-3)">
                    <path id="Path_9368" fill="url(#linear-gradient-24)" d="M251.059 394.452l5.408 56.307 6.646-2.247-4.1-50.241z"/>
                </g>
                <g id="Group_5920" clip-path="url(#clip-path-4)">
                    <path id="Path_9370" fill="url(#linear-gradient-25)" d="M281.916 376.954l-9.861 78.892h10.176z"/>
                </g>
                <g id="Group_5921" clip-path="url(#clip-path-5)">
                    <path id="Path_9372" fill="url(#linear-gradient-26)" d="M253.393 333.363s15.986 16.7 45.331 13.122-16.918-22.2-16.918-22.2z" transform="translate(-12.834 5.682)"/>
                </g>
                <path id="Path_9374" d="M233.128 284.154s-2.32-7.468-.786-7.705 2.978 5.024 2.978 5.024z" class="cls-48" transform="translate(-12.834 5.682)"/>
                <path id="Path_9375" fill="#0055bf" d="M241.463 287.772a1.233 1.233 0 0 0 1.37-1.06l1.717-13.017a1.233 1.233 0 0 0-1.06-1.37l-6.554-.863a1.233 1.233 0 0 0-1.37 1.06l-1 7.609a2.142 2.142 0 0 0 .662 1.827z" transform="translate(-12.834 5.682)"/>
                <path id="Path_9376" fill="#0059cf" d="M240.824 287.685a1.233 1.233 0 0 0 1.37-1.06l1.717-13.017a1.233 1.233 0 0 0-1.06-1.37l-6.554-.863a1.233 1.233 0 0 0-1.37 1.06l-1 7.609a2.142 2.142 0 0 0 .662 1.827z" transform="translate(-12.834 5.682)"/>
                <circle id="Ellipse_2" cx=".548" cy=".548" r=".548" class="cls-9" transform="rotate(-3.62 4250.205 -3201.352)"/>
                <path id="Path_9377" d="M253.886 288.964l-5.129 8.884a.913.913 0 0 1-1.37.242 75.28 75.28 0 0 1-6.234-5.7 2.215 2.215 0 0 1-.544-1.8s1.7.393 1.969-.8a1.85 1.85 0 0 0-.5-1.781s1.672.571 1.991-.863c.206-.913-.913-1.7-.913-1.7s2.462-.8.973-2.631-10.994-2.549-10.994-2.549l-1.507 11.035a3.288 3.288 0 0 0 .484 2.206c2.074 3.266 9.276 13.62 13.067 19.055a3.261 3.261 0 0 0 5.125.288l15.31-17.356z" class="cls-48" transform="translate(-12.834 5.682)"/>
                <path id="Path_9378" d="M270.731 273.85a5.056 5.056 0 0 1 2.7 6.088c-1.749 5.622-8.221 23.147-10.336 26.92 0 0-13.2-1.749-14.031-13.04 0 0 12.674-22.837 17.5-21.5a26.952 26.952 0 0 1 4.167 1.532z" class="cls-51" transform="translate(-12.834 5.682)"/>
                <path id="Path_9379" fill="url(#linear-gradient-27)" d="M270.731 273.85a5.056 5.056 0 0 1 2.7 6.088c-1.749 5.622-8.221 23.147-10.336 26.92 0 0-13.2-1.749-14.031-13.04 0 0 12.674-22.837 17.5-21.5a26.952 26.952 0 0 1 4.167 1.532z" transform="translate(-12.834 5.682)"/>
                <path id="Path_9380" d="M295.628 336.4l1.439-57.891a1.74 1.74 0 0 0-1.434-1.754l-26.333-4.727a6.961 6.961 0 0 0-8.157 5.865l-6.134 55.754s20.335 12.021 40.619 2.753z" class="cls-51" transform="translate(-12.834 5.682)"/>
                <path id="Path_9381" fill="url(#linear-gradient-28)" d="M295.628 336.4l1.416-56.969a2.818 2.818 0 0 0-2.32-2.845l-25.424-4.567a6.961 6.961 0 0 0-8.157 5.865l-6.139 55.763s20.34 12.021 40.624 2.753z" transform="translate(-12.834 5.682)"/>
                <path id="Path_9382" fill="url(#linear-gradient-29)" d="M295.628 336.4l1.416-56.969a2.818 2.818 0 0 0-2.32-2.845l-25.424-4.567a6.961 6.961 0 0 0-8.157 5.865l-6.139 55.763s20.34 12.021 40.624 2.753z" opacity="0.5" transform="translate(-12.834 5.682)"/>
                <path id="Path_9383" fill="url(#linear-gradient-30)" d="M292.312 312.865a24.864 24.864 0 0 1-32.479 23.074l-.238-.078c7.143 2.964 21.595 7.139 36.023.548l1.311-57.677z" opacity="0.2" transform="translate(-12.834 5.682)"/>
                <path id="Path_9384" d="M291.211 305.246l5.938 12.729s-5.938 10.432-10.5 28.642c0 0 1.046 6.7 6.061 2.11 0 0 15.451-26.655 15.451-30.807s-5.4-19.553-5.4-19.553z" class="cls-56" transform="translate(-12.834 5.682)"/>
                <path id="Path_9385" d="M287.571 342.461c-.685 0-6.627 1.859-6.851 4.5s8.02-.913 8.02-.913z" class="cls-56" transform="translate(-12.834 5.682)"/>
                <path id="Path_9386" d="M292.978 276.979a5.549 5.549 0 0 1 6.732 2.859c2.813 5.823 8.422 23.677 8.422 23.677-5.44 8.395-17.562 5.727-17.562 5.727s-6.956-27.82-2.087-30.373a29.566 29.566 0 0 1 4.495-1.89z" class="cls-51" transform="translate(-12.834 5.682)"/>
                <path id="Path_9387" fill="url(#linear-gradient-31)" d="M292.978 276.979a5.549 5.549 0 0 1 6.732 2.859c2.813 5.823 8.422 23.677 8.422 23.677-5.44 8.395-17.562 5.727-17.562 5.727s-6.956-27.82-2.087-30.373a29.566 29.566 0 0 1 4.495-1.89z" opacity="0.5" transform="translate(-12.834 5.682)"/>
                <path id="Path_9388" d="M274.956 267.141s-.959 4.974-1.229 7.221c-.206 1.695.128 7.175 3.75 7.079 2.069-.055 3.905-1.768 5.248-3.869a14.917 14.917 0 0 0 2.243-6.8l1.119-13.245z" class="cls-56" transform="translate(-12.834 5.682)"/>
                <g id="Group_5922" clip-path="url(#clip-path-6)">
                    <path id="Path_9389" d="M281.935 266.757a11.348 11.348 0 0 1-7.006 7c-5.476 1.809.046-8.9.046-8.9z" class="cls-18" transform="translate(-12.834 5.682)"/>
                </g>
                <path id="Path_9391" d="M286.95 259.015l-2.261 6.349a5.746 5.746 0 0 1-4.038 3.654l-7.239 1.937a3.261 3.261 0 0 1-3.983-2.284 34.136 34.136 0 0 1 .667-20.421c4.704-12.743 21.846-4.709 16.854 10.765z" class="cls-56" transform="translate(-12.834 5.682)"/>
                <g id="Group_5924" class="cls-59">
                    <g id="Group_5923" class="cls-60">
                        <path id="Path_9392" fill="url(#linear-gradient-32)" d="M266.935 248.008c7.331.836 12.483.827 12.633 7.911.146 6.9-4.394 14.355-9.683 15.529s-2.95-23.44-2.95-23.44z" transform="translate(-12.834 5.682)"/>
                    </g>
                </g>
                <path id="Path_9394" d="M286.95 259.015l-2.261 6.349a5.746 5.746 0 0 1-4.038 3.654l-7.239 1.937a3.261 3.261 0 0 1-3.983-2.284 34.136 34.136 0 0 1 .667-20.421c4.704-12.743 21.846-4.709 16.854 10.765z" class="cls-56" transform="translate(-12.834 5.682)"/>
                <g id="Group_5926" class="cls-59">
                    <g id="Group_5925" class="cls-60">
                        <path id="Path_9395" fill="url(#linear-gradient-33)" d="M266.378 247.917c7.331.836 12.483.827 12.633 7.911.146 6.9-4.394 14.355-9.683 15.529s-2.95-23.44-2.95-23.44z" transform="translate(-12.834 5.682)"/>
                    </g>
                </g>
                <path id="Path_9397" d="M290.864 245.724a5.56 5.56 0 0 0-5.8-2.676s-.457-2.389-5.353-2.407c-10.277-.041-11.418 9.2-11.418 9.2 2.96 3.882 10.217 3.037 13.725 2.357a35.388 35.388 0 0 1-2.453 2.951 7.062 7.062 0 0 0 4.111-1.37c-.457 3.741-1.037 11.336 1.827 11.382 2.159.052 7.265-15.961 5.361-19.437z" class="cls-37" transform="translate(-12.834 5.682)"/>
                <g id="Group_5927" clip-path="url(#clip-path-9)">
                    <path id="Path_9398" d="M282.026 256.9s8.769-6.741 10.318-12.583-1.79 24.038-1.79 24.038l-6.463-.6z" class="cls-64" transform="translate(-12.834 5.682)"/>
                </g>
                <path id="Path_9400" fill="url(#linear-gradient-34)" d="M290.864 245.724a5.56 5.56 0 0 0-5.8-2.676s-.457-2.389-5.353-2.407c-10.277-.041-11.418 9.2-11.418 9.2 2.96 3.882 10.217 3.037 13.725 2.357a35.388 35.388 0 0 1-2.453 2.951 7.062 7.062 0 0 0 4.111-1.37c-.457 3.741-1.037 11.336 1.827 11.382 2.159.052 7.265-15.961 5.361-19.437z" transform="translate(-12.834 5.682)"/>
                <path id="Path_9401" d="M283.232 257.737s3.2-2.983 5.271-.722-1.347 5.577-5.07 5.056-.201-4.334-.201-4.334z" class="cls-56" transform="translate(-12.834 5.682)"/>
                <path id="Path_9402" d="M284.118 259.573a.457.457 0 0 0 .393.7 3.439 3.439 0 0 0 2.69-1.452.539.539 0 0 0-.457-.8 2.857 2.857 0 0 0-1.681.6 3.6 3.6 0 0 0-.959.914z" class="cls-18" transform="translate(-12.834 5.682)"/>
                <path id="Path_9403" d="M599.211 355.341c-5.938 3.572-15.529 3.572-21.439 0s-5.938-9.359 0-12.93 15.529-3.572 21.439 0 5.92 9.345 0 12.93z" class="cls-36" transform="translate(-12.834 5.682)"/>
                <path id="Path_9404" d="M557.379 365.348c-5.938 3.572-15.529 3.572-21.439 0s-5.938-9.359 0-12.93 15.529-3.572 21.439 0 5.921 9.359 0 12.93z" class="cls-36" transform="translate(-12.834 5.682)"/>
                <path id="Path_9405" d="M542.339 356.369c-2.718.708-5.673 1.676-5.91 2.581-.457 1.7 16.1 4.727 18.425.767a16.134 16.134 0 0 0 .95-2.891z" class="cls-9" transform="translate(-12.834 5.682)"/>
                <path id="Path_9406" d="M510.262 185.266c1.758-.639 3.2.219 3.2 1.923a4.975 4.975 0 0 1-3.2 4.239c-1.758.639-3.2-.219-3.2-1.918a4.992 4.992 0 0 1 3.2-4.243" class="cls-34" transform="translate(-12.834 5.682)"/>
                <path id="Path_9407" d="M585.377 337.771l2.782 7.5s-10.076 1.927-10.5 3.631 15.844 4.056 18.881.607c1.768-2.01-2.352-15.876-2.352-15.876z" class="cls-37" transform="translate(-12.834 5.682)"/>
                <path id="Path_9408" fill="url(#linear-gradient-35)" d="M585.377 337.771l2.782 7.5s-10.076 1.927-10.5 3.631 15.844 4.056 18.881.607c1.768-2.01-2.352-15.876-2.352-15.876z" transform="translate(-12.834 5.682)"/>
                <path id="Path_9409" d="M594.671 335.423l.078.283z" class="cls-9" transform="translate(-12.834 5.682)"/>
                <path id="Path_9410" d="M594.795 335.871l.123.457z" class="cls-9" transform="translate(-12.834 5.682)"/>
                <path id="Path_9411" d="M594.955 336.469l.1.37z" class="cls-9" transform="translate(-12.834 5.682)"/>
                <path id="Path_9412" d="M595.128 337.072l.082.32z" class="cls-9" transform="translate(-12.834 5.682)"/>
                <path id="Path_9413" d="M594.562 335.021l.064.238z" class="cls-9" transform="translate(-12.834 5.682)"/>
                <path id="Path_9414" d="M594.178 333.674l.027.1z" class="cls-9" transform="translate(-12.834 5.682)"/>
                <path id="Path_9415" d="M594.274 334.007l.046.164z" class="cls-9" transform="translate(-12.834 5.682)"/>
                <path id="Path_9416" d="M594.215 333.815l.032.114z" class="cls-9" transform="translate(-12.834 5.682)"/>
                <path id="Path_9417" d="M594.452 334.619l.069.242z" class="cls-9" transform="translate(-12.834 5.682)"/>
                <path id="Path_9418" d="M594.343 334.245l.082.292z" class="cls-9" transform="translate(-12.834 5.682)"/>
                <path id="Path_9419" d="M594.169 333.637v.041z" class="cls-9" transform="translate(-12.834 5.682)"/>
                <path id="Path_9420" d="M596.521 349.509c-3.028 3.439-19.242 1.105-18.881-.594-.457 1.7 15.844 4.056 18.881.607a3.635 3.635 0 0 0 .457-2.211 3.8 3.8 0 0 1-.457 2.198z" class="cls-9" transform="translate(-12.834 5.682)"/>
                <path id="Path_9421" d="M547.44 348.746l-.489 6.495s-10.076 1.927-10.505 3.631 16.548 4.567 18.882.607c1.621-2.74 1.48-14.876 1.48-14.876z" class="cls-37" transform="translate(-12.834 5.682)"/>
                <path id="Path_9422" fill="url(#linear-gradient-36)" d="M547.44 348.746l-.489 6.495s-10.076 1.927-10.505 3.631 16.548 4.567 18.882.607c1.621-2.74 1.48-14.876 1.48-14.876z" transform="translate(-12.834 5.682)"/>
                <path id="Path_9423" d="M585.021 226.816s1.882 44.97 2.635 53.63 9.409 58.334 9.409 58.334-5.833 6.586-12.7 2.069c0 0-15.808-41.773-18.63-54.192s-6.335-50.725-6.335-50.725z" class="cls-51" transform="translate(-12.834 5.682)"/>
                <path id="Path_9424" fill="url(#linear-gradient-37)" d="M585.021 226.816s1.882 44.97 2.635 53.63 9.409 58.334 9.409 58.334-5.833 6.586-12.7 2.069c0 0-15.808-41.773-18.63-54.192s-6.335-50.725-6.335-50.725z" transform="translate(-12.834 5.682)"/>
                <path id="Path_9425" fill="url(#linear-gradient-38)" d="M570.743 288.8c-2.823-12.419-6.335-50.725-6.335-50.725l20.777-7.39c-.105-2.421-.164-3.869-.164-3.869L559.4 235.95s3.512 38.307 6.335 50.725 18.63 54.192 18.63 54.192a8.98 8.98 0 0 0 4.8 1.576c-1.897-5.033-15.791-42.075-18.422-53.643z" opacity="0.2" transform="translate(-12.834 5.682)"/>
                <path id="Path_9426" d="M546.1 239.166s-4.49 42.682-4.49 52.369 4.079 59.184 4.079 59.184 4.937 2.74 12.455 1.069c3.759-.836 4.832-58.887 4.832-58.887 5.088-25.769 12.4-58.851 12.4-58.851z" class="cls-51" transform="translate(-12.834 5.682)"/>
                <path id="Path_9427" fill="url(#linear-gradient-39)" d="M546.1 239.166s-4.49 42.682-4.49 52.369 4.079 59.184 4.079 59.184 4.937 2.74 12.455 1.069c3.759-.836 4.832-58.887 4.832-58.887 5.088-25.769 12.4-58.851 12.4-58.851z" transform="translate(-12.834 5.682)"/>
                <path id="Path_9428" fill="url(#linear-gradient-40)" d="M555.287 348.294a20.7 20.7 0 0 1-9.8-.087c.128 1.6.206 2.521.206 2.521s4.937 2.74 12.455 1.069c3.759-.836 4.832-58.887 4.832-58.887s-3.934 54.548-7.693 55.384z" transform="translate(-12.834 5.682)"/>
                <g id="Group_5928" clip-path="url(#clip-path-10)">
                    <path id="Path_9429" fill="url(#linear-gradient-41)" d="M542.147 241.331s22.663 12.885 46.523-.457-6.6-17.406-6.6-17.406z" transform="translate(-12.834 5.682)"/>
                </g>
                <path id="Path_9431" d="M580.595 175.058l11.989 26.852a4.312 4.312 0 0 1-.406 4.229l-16.57 23.641z" class="cls-8" transform="translate(-12.834 5.682)"/>
                <path id="Path_9432" fill="url(#linear-gradient-42)" d="M580.595 175.058l11.989 26.852a4.312 4.312 0 0 1-.406 4.229l-16.57 23.641z" transform="translate(-12.834 5.682)"/>
                <path id="Path_9433" fill="url(#linear-gradient-43)" d="M580.595 175.058l11.989 26.852a4.312 4.312 0 0 1-.406 4.229l-16.57 23.641z" transform="translate(-12.834 5.682)"/>
                <path id="Path_9434" d="M552.894 167.741l1.306 16.246-10.884-.575.658-15.355z" class="cls-56"/>
                <g id="Group_5930" class="cls-59">
                    <g id="Group_5929" clip-path="url(#clip-path-11)">
                        <path id="Path_9435" d="M560.275 168.079a7.906 7.906 0 0 1-4.344 6.636c-4.344 2.233-1.717-6.636-1.717-6.636z" class="cls-13" transform="translate(-12.834 5.682)"/>
                    </g>
                </g>
                <path id="Path_9437" d="M560.873 169.751s-8 4.567-9.053 4.645-5.481-7.395-4.992-19.8c.3-7.81 13.7-10.048 16.991-7.1 5.093 4.567 5.024 8.925 3.713 11.875-1.544 3.529-6.659 10.38-6.659 10.38z" class="cls-56" transform="translate(-12.834 5.682)"/>
                <g id="Group_5932" class="cls-59">
                    <g id="Group_5931" clip-path="url(#clip-path-12)">
                        <path id="Path_9438" fill="url(#linear-gradient-44)" d="M543.106 157.524s5.536-4.065 8.271-.073c2.1 3.06 4.636 13.761-.237 18s-8.034-17.927-8.034-17.927z" transform="translate(-12.834 5.682)"/>
                    </g>
                </g>
                <path id="Path_9440" d="M565.815 147.037a14.159 14.159 0 0 0-7.107-2.421 1.685 1.685 0 0 0-2.672-.635 5.1 5.1 0 0 0-7.828.758 5.1 5.1 0 1 0-1.4 10.085 1.731 1.731 0 0 0 .338.046 68.814 68.814 0 0 0 8.5-.877l.681 7.454s.831 10.738 9.774 7.468c-.001.005 8.264-16.228-.286-21.878z" class="cls-37" transform="translate(-12.834 5.682)"/>
                <path id="Path_9441" fill="url(#linear-gradient-45)" d="M565.815 147.037a14.159 14.159 0 0 0-7.107-2.421 1.685 1.685 0 0 0-2.672-.635 5.1 5.1 0 0 0-7.828.758 5.1 5.1 0 1 0-1.4 10.085 1.731 1.731 0 0 0 .338.046 68.814 68.814 0 0 0 8.5-.877l.681 7.454s.831 10.738 9.774 7.468c-.001.005 8.264-16.228-.286-21.878z" transform="translate(-12.834 5.682)"/>
                <path id="Path_9442" d="M555.7 161.182s1.448-3.54 3.923-2.507.973 4.924-2.174 5.874-1.749-3.367-1.749-3.367z" class="cls-56" transform="translate(-12.834 5.682)"/>
                <path id="Path_9443" d="M557.082 162.315a.393.393 0 0 0 .571.416 3.014 3.014 0 0 0 1.608-2.142.457.457 0 0 0-.639-.457 2.489 2.489 0 0 0-1.114 1.1 3.151 3.151 0 0 0-.42 1.1z" class="cls-18" transform="translate(-12.834 5.682)"/>
                <g id="Group_5933" clip-path="url(#clip-path-13)">
                    <path id="Path_9444" fill="#0059ce" d="M569.163 149.138s-.059 13.7-13.405 23.453 29.976-3.654 29.976-3.654z" opacity="0.25" transform="translate(-12.834 5.682)"/>
                </g>
                <path id="Path_9446" d="M544.919 241.87s24.554 8.409 41.3-9.135l-4.732-55.028a6.755 6.755 0 0 0-8.861-5.828l-23.175 7.705a6.755 6.755 0 0 0-4.613 6.719z" class="cls-8" transform="translate(-12.834 5.682)"/>
                <path id="Path_9447" fill="url(#linear-gradient-46)" d="M544.919 241.87s24.554 8.409 41.3-9.135l-4.732-55.028a6.755 6.755 0 0 0-8.861-5.828l-23.175 7.705a6.755 6.755 0 0 0-4.613 6.719z" transform="translate(-12.834 5.682)"/>
                <path id="Path_9448" fill="url(#linear-gradient-47)" d="M544.828 186.3l.091 55.562a33.852 33.852 0 0 0 3.5.913s-3.728-59.491-3.591-56.475z" transform="translate(-12.834 5.682)"/>
                <path id="Path_9449" fill="url(#linear-gradient-48)" d="M581.49 177.7a6.755 6.755 0 0 0-5.814-6.116 6.7 6.7 0 0 1 2.316 4.526l4.069 47.341a14.666 14.666 0 0 1-7.353 13.985c-11.373 6.495-23.86 5.024-29.788 3.754v.676s24.554 8.409 41.3-9.135z" transform="translate(-12.834 5.682)"/>
                <path id="Path_9450" d="M556.169 177.214s3.594 1.722 6.942.393 3.563-3.937 3.563-3.937l-5.1-.566z" class="cls-56" transform="translate(-12.834 5.682)"/>
                <path id="Path_9451" d="M518.186 198.708c-.361-.913-6.216-11.418-8.057-11.039s1.224 7.545 1.224 7.545-3.932 1.964-4.033 5.184 7.545 5.81 7.545 5.81z" class="cls-56" transform="translate(-12.834 5.682)"/>
                <path id="Path_9452" d="M552.83 180.411c-2.74-1.745-7.947.187-10.875 7.006s-9.925 18.411-9.925 18.411l-13.771-8.806s-7.157 2.512-6.906 8.81l22.837 18.055a3 3 0 0 0 4.165-.457c4.17-5.052 24.865-30.186 26.23-32.351 1.737-2.771-11.755-10.668-11.755-10.668z" class="cls-8" transform="translate(-12.834 5.682)"/>
                <g id="Group_5934" clip-path="url(#clip-path-14)">
                    <path id="Path_9453" fill="url(#linear-gradient-49)" d="M498.291 204.426l22.115 24.728-24.878-16.589z"/>
                </g>
                <path id="Path_9455" fill="url(#linear-gradient-50)" d="M552.83 180.411c-2.74-1.745-7.947.187-10.875 7.006s-9.925 18.411-9.925 18.411l-13.771-8.806s-7.157 2.512-6.906 8.81l22.837 18.055a3 3 0 0 0 4.165-.457c4.17-5.052 24.865-30.186 26.23-32.351 1.737-2.771-11.755-10.668-11.755-10.668z" transform="translate(-12.834 5.682)"/>
                <path id="Path_9456" d="M495.391 452.252c-5.234 3.156-13.7 3.156-18.959 0s-5.234-8.276 0-11.418 13.7-3.156 18.959 0 5.234 8.266 0 11.418z" class="cls-36" transform="translate(-12.834 5.682)"/>
                <path id="Path_9457" d="M510.285 449.251a8.415 8.415 0 0 1-7.92 0c-2.188-1.32-2.188-3.458 0-4.777a8.415 8.415 0 0 1 7.92 0c2.187 1.319 2.174 3.457 0 4.777z" class="cls-36" transform="translate(-12.834 5.682)"/>
                <g id="Group_5935">
                    <path id="Path_9458" d="M493.463 392.419l-.909 47.167-102.683 36.731.9-47.167z" class="cls-3"/>
                    <path id="Path_9459" d="M389.871 476.317l-33.287-22.54.909-47.167 33.282 22.54z" class="cls-10"/>
                    <path id="Path_9460" d="M390.775 429.15l-33.282-22.54 102.684-36.731 33.287 22.54z" class="cls-51"/>
                </g>
                <path id="Path_9461" d="M493.463 392.419l-.909 47.167-102.683 36.731.9-47.167z" class="cls-10"/>
                <g id="Group_5936" clip-path="url(#clip-path-15)">
                    <path id="Path_9462" d="M427.592 393.25s7.1 17.269 24.6 12.606c3.654-.977 14.218-4.9 14.218-4.9s-2.183 15.529 6.139 44.915c5.759 20.329 9.628-1.959 9.628-1.959l-10.281-62.4z" class="cls-36" transform="translate(-12.834 5.682)"/>
                    <path id="Path_9463" d="M470.32 420.723l9.788 23.335 8.975-2.366-15.255-23.092z" class="cls-36"/>
                </g>
                <path id="Path_9465" fill="url(#linear-gradient-51)" d="M389.871 476.317l-33.287-22.54.909-47.167 33.282 22.54z"/>
                <g id="Group_5937" class="cls-17">
                    <path id="Path_9466" fill="url(#linear-gradient-52)" d="M493.463 392.419l-.909 47.167-102.683 36.731.9-47.167z"/>
                </g>
                <path id="Path_9467" fill="url(#linear-gradient-53)" d="M390.775 429.15l-33.282-22.54 102.684-36.731 33.287 22.54z"/>
                <path id="Path_9468" d="M476.294 432.365c.4 1.978 2.361 12.789 2.8 13.844s14.616 6.445 15.958 3.722-10.843-9.1-10.843-9.1l-1.37-9.24z" class="cls-8" transform="translate(-12.834 5.682)"/>
                <path id="Path_9469" fill="url(#linear-gradient-54)" d="M476.294 432.365c.4 1.978 2.361 12.789 2.8 13.844s14.616 6.445 15.958 3.722-10.843-9.1-10.843-9.1l-1.37-9.24z" transform="translate(-12.834 5.682)"/>
                <g id="Group_5938" clip-path="url(#clip-path-16)">
                    <path id="Path_9470" fill="url(#linear-gradient-55)" d="M485.4 435.727s-.114 5.426-7.705 5.426.114-5.992.114-5.992z" transform="translate(-12.834 5.682)"/>
                </g>
                <path id="Path_9472" d="M459.359 358.246l3.371 5.938 11.4 29.135-5.668 3.768-19.676-34.858z" class="cls-56"/>
                <path id="Path_9473" d="M498.062 435.27c.987 1.713 6.18 11.14 6.915 11.985s15.383.8 15.739-2.229-12.917-5.143-12.917-5.143l-4.019-7.682z" class="cls-8" transform="translate(-12.834 5.682)"/>
                <path id="Path_9474" fill="url(#linear-gradient-56)" d="M498.062 435.27c.987 1.713 6.18 11.14 6.915 11.985s15.383.8 15.739-2.229-12.917-5.143-12.917-5.143l-4.019-7.682z" transform="translate(-12.834 5.682)"/>
                <g id="Group_5939" clip-path="url(#clip-path-17)">
                    <path id="Path_9475" fill="url(#linear-gradient-57)" d="M506.407 434.928s1.886 5.426-4.225 7.6-2-8.048-2-8.048z" transform="translate(-12.834 5.682)"/>
                </g>
                <path id="Path_9477" d="M483.52 382.8l24.207 51.333s-3.946 6.207-9.642 5.7l-33.9-51.739 14.4-7.052a3.654 3.654 0 0 1 4.937 1.754z" class="cls-98" transform="translate(-12.834 5.682)"/>
                <path id="Path_9478" fill="url(#linear-gradient-58)" d="M483.52 382.8a3.654 3.654 0 0 0-4.567-1.891 3.655 3.655 0 0 1 .457.749l21.923 46.542a7.33 7.33 0 0 1-3.791 9.961q-.242.1-.489.178l1 1.521c5.7.484 9.623-5.723 9.623-5.723z" transform="translate(-12.834 5.682)"/>
                <path id="Path_9479" d="M424.528 380.27s.767 4.663 1.265 7.8 35.941-16.584 35.941-16.584l-.992-5.486z" class="cls-98" transform="translate(-12.834 5.682)"/>
                <path id="Path_9480" d="M451.233 322.63s8.82.859 13.478 11.491 10.126 21.579 10.126 21.579-3.686 8.724-11.715 7.436l-12.355-24.1z" class="cls-37" transform="translate(-12.834 5.682)"/>
                <path id="Path_9481" fill="url(#linear-gradient-59)" d="M451.233 322.63s8.82.859 13.478 11.491 10.126 21.579 10.126 21.579-3.686 8.724-11.715 7.436l-12.355-24.1z" transform="translate(-12.834 5.682)"/>
                <path id="Path_9482" fill="url(#linear-gradient-60)" d="M451.233 322.63s8.82.859 13.478 11.491 10.126 21.579 10.126 21.579-3.686 8.724-11.715 7.436l-12.355-24.1z" transform="translate(-12.834 5.682)"/>
                <path id="Path_9483" d="M483.1 378.982c-1.462.206-5.079 4.567-4.764 5.8s3.955-.553 3.955-.553a38.655 38.655 0 0 0-2.955 6.34c-.452 1.927.635 3.654 1.521 3.891s5.417-2.969 6.239-4.814-3.996-10.664-3.996-10.664z" class="cls-56" transform="translate(-12.834 5.682)"/>
                <path id="Path_9484" d="M427.433 330.714s-3.471 37.658-3.115 50.058c0 0 21.129 5.481 37.452-11.053l-7.545-44.262a3.321 3.321 0 0 0-4.344-2.69z" class="cls-37" transform="translate(-12.834 5.682)"/>
                <path id="Path_9485" fill="url(#linear-gradient-61)" d="M427.433 330.714s-3.471 37.658-3.115 50.058c0 0 21.129 5.481 37.452-11.053l-7.545-44.262a3.321 3.321 0 0 0-4.344-2.69z" transform="translate(-12.834 5.682)"/>
                <path id="Path_9486" d="M455.335 332.285s6.3 8 5.435 13.551-4.2 7.765-4.2 7.765z" class="cls-37" transform="translate(-12.834 5.682)"/>
                <path id="Path_9487" fill="url(#linear-gradient-62)" d="M458.637 351.391a13.246 13.246 0 0 0 2.138-5.549c.818-5.248-4.768-12.684-5.38-13.478l-1.178-6.906a3.321 3.321 0 0 0-4.344-2.69l-22.439 7.947s-3.471 37.658-3.115 50.058c0 0 21.129 5.481 37.452-11.053z" transform="translate(-12.834 5.682)"/>
                <path id="Path_9488" d="M434.983 311.91v16.077s4.266 9.085 9.422 8.089c4.969-.941 1.772-10.222 1.772-10.222v-8.568z" class="cls-56" transform="translate(-12.834 5.682)"/>
                <g id="Group_5940" clip-path="url(#clip-path-18)">
                    <path id="Path_9489" d="M449.132 325.868l-10.048-4s1.548 7.262 8.568 7.765 1.48-3.765 1.48-3.765z" class="cls-18" transform="translate(-12.834 5.682)"/>
                </g>
                <circle id="Ellipse_3" cx="3.919" cy="3.919" r="3.919" class="cls-105" transform="matrix(1 -.027 .027 1 415.141 302.564)"/>
                <circle id="Ellipse_4" cx="3.919" cy="3.919" r="3.919" class="cls-105" transform="matrix(1 -.027 .027 1 424.817 300.447)"/>
                <path id="Path_9491" d="M451.768 308.818c0-.685-.023-1.092-.023-1.092l-.064.032a10.962 10.962 0 1 0-16.566 10.834c2.617 3.1 7.4 8.249 11.9 7.956 4.7-.3 4.777-12.962 4.755-17.31v-.292c.002-.101-.002-.082-.002-.128z" class="cls-56" transform="translate(-12.834 5.682)"/>
                <g id="Group_5941" clip-path="url(#clip-path-19)">
                    <path id="Path_9492" fill="url(#linear-gradient-63)" d="M453.49 315.82c-.137-2.206-.4-8.162-7.116-5.938s-5.787 14.3-.457 18.11 7.573-12.172 7.573-12.172z" transform="translate(-12.834 5.682)"/>
                </g>
                <path id="Path_9494" d="M447.1 303.73s.539 6.7-10.368 11.213c0 0 1.2 1.863-1.621 3.654 0 0-12.4-7.765-2.877-17.785 6.11-6.445 12.573-.987 14.866 2.918z" class="cls-8" transform="translate(-12.834 5.682)"/>
                <path id="Path_9495" d="M447.1 303.73s1.827 3.549 4.622 4.439c0 0 .913-4.782-1.873-7.344s-6.737-4.188-9.71-2.434 6.961 5.339 6.961 5.339z" class="cls-8" transform="translate(-12.834 5.682)"/>
                <path id="Path_9496" fill="url(#linear-gradient-64)" d="M449.849 300.843c-2.645-2.444-6.394-4.028-9.3-2.645-2.544-.808-5.481-.393-8.322 2.613-9.518 10.048 2.877 17.785 2.877 17.785 2.823-1.772 1.621-3.654 1.621-3.654 10.9-4.508 10.368-11.213 10.368-11.213s1.827 3.549 4.622 4.439c-.002.02.911-4.762-1.866-7.325z" transform="translate(-12.834 5.682)"/>
                <path id="Path_9497" d="M437.7 312.559s-2.823-3.115-4.992-1.114.84 5.449 4.449 5.248.543-4.134.543-4.134z" class="cls-56" transform="translate(-12.834 5.682)"/>
                <path id="Path_9498" d="M436.709 314.235a.429.429 0 0 1-.429.644 3.318 3.318 0 0 1-2.462-1.608.516.516 0 0 1 .484-.735 2.731 2.731 0 0 1 1.557.712 3.462 3.462 0 0 1 .845.973z" class="cls-18" transform="translate(-12.834 5.682)"/>
                <path id="Path_9499" d="M425.825 388.066s3.654 15.762 16.3 14.337 22.321-10.555 22.321-10.555 4.394 35.443 11.418 44.614c0 0 6.755 3.7 9.856-2.325 0 0-4.138-63.03-8.358-66.094s-51.537 20.023-51.537 20.023z" class="cls-98" transform="translate(-12.834 5.682)"/>
                <path id="Path_9500" fill="url(#linear-gradient-65)" d="M425.825 388.066s3.654 15.762 16.3 14.337 22.321-10.555 22.321-10.555 4.394 35.443 11.418 44.614c0 0 6.755 3.7 9.856-2.325 0 0-4.138-63.03-8.358-66.094s-51.537 20.023-51.537 20.023z" transform="translate(-12.834 5.682)"/>
                <g id="Group_5942" opacity="0.2">
                    <path id="Path_9501" fill="url(#linear-gradient-66)" d="M477.354 368.043c-.53-.384 4.928 66.094 4.928 66.094a5.878 5.878 0 0 1-3.818 3.247c2.243.457 5.394.347 7.244-3.247.004.001-4.134-63.037-8.354-66.094z" transform="translate(-12.834 5.682)"/>
                </g>
                <path id="Path_9502" d="M412.2 362.448s-4.791 14.159-4.873 14.616-.343 25.28-.343 25.28l4.992 2.1a80.815 80.815 0 0 0 4.28-23.472l6.394-13.245z" class="cls-56" transform="translate(-12.834 5.682)"/>
                <path id="Path_9503" d="M429.858 330.846C419.5 327.649 411 362.361 411 362.361a15.753 15.753 0 0 0 11.555 8.728s18.105-36.904 7.303-40.243z" class="cls-37" transform="translate(-12.834 5.682)"/>
                <path id="Path_9504" fill="url(#linear-gradient-67)" d="M429.858 330.846C419.5 327.649 411 362.361 411 362.361a15.753 15.753 0 0 0 11.555 8.728s18.105-36.904 7.303-40.243z" transform="translate(-12.834 5.682)"/>
                <path id="Path_9505" d="M413.447 414.539a15.538 15.538 0 0 1-14.616 0c-4.028-2.434-4.038-6.394 0-8.82a15.563 15.563 0 0 1 14.616 0c4.029 2.435 4.038 6.381 0 8.82z" class="cls-36" transform="translate(-12.834 5.682)"/>
                <path id="Path_9506" d="M412.959 400.1l-1.206 3.841a3.981 3.981 0 0 1 .361 3.389c-.726 1.685-5.284 6.682-5.417 5.664s2.672-5.65 2.672-5.65l-3.357 2.042a1.526 1.526 0 0 0-.671.913l-.913 3.307a1.544 1.544 0 0 1-1.927 1.114 1.571 1.571 0 0 1-.914-.795L400 410.821a2.06 2.06 0 0 1-.078-1.694l1.941-4.914a1.854 1.854 0 0 1 1.494-1.174l3.7-.457v-5.732" class="cls-48" transform="translate(-12.834 5.682)"/>
                <path id="Path_9507" d="M433.206 355.6s6.938 2.626 10.806-1.37-2.763 9.789-10.806 1.37z" class="cls-64" transform="translate(-12.834 5.682)"/>
                <path id="Path_9508" d="M439.153 380.768l-13.095-.078s2.21 20.325 13.095.078z" class="cls-36" transform="translate(-12.834 5.682)"/>
            </g>
        </g>
        <path id="Mask-2" d="M0 0H416V456H0z" class="cls-1"/>
    </g>
</svg>
